<?xml version="1.0" encoding="UTF-8" standalone="no"?>
<svg
   xmlns:dc="http://purl.org/dc/elements/1.1/"
   xmlns:cc="http://creativecommons.org/ns#"
   xmlns:rdf="http://www.w3.org/1999/02/22-rdf-syntax-ns#"
   xmlns:svg="http://www.w3.org/2000/svg"
   xmlns="http://www.w3.org/2000/svg"
   id="svg8"
   version="1.1"
   viewBox="0 0 105 148"
   height="148mm"
   width="105mm">
  <defs
     id="defs2">
    <clipPath
       clipPathUnits="userSpaceOnUse"
       id="clipEmfPath1">
      <path
         d="M 0,-0.79951545 H 623.62205 V 109.53362 H 0 Z"
         id="path10" />
    </clipPath>
    <pattern
       id="EMFhbasepattern"
       patternUnits="userSpaceOnUse"
       width="6"
       height="6"
       x="0"
       y="0" />
  </defs>
  <metadata
     id="metadata5">
    <rdf:RDF>
      <cc:Work
         rdf:about="">
        <dc:format>image/svg+xml</dc:format>
        <dc:type
           rdf:resource="http://purl.org/dc/dcmitype/StillImage" />
        <dc:title></dc:title>
      </cc:Work>
    </rdf:RDF>
  </metadata>
  <g
     transform="translate(0,-149)"
     id="layer1">
    <path
       d="M 12.850232,184.23221 H 11.214238 9.5782424 l -0.2866883,0.66687 -0.2866882,0.66686 c -0.070633,0.16411 -0.1236082,0.30746 -0.1589254,0.43002 -0.035317,0.12257 -0.052975,0.22437 -0.052975,0.30539 0,0.0644 0.01506,0.12512 0.045184,0.18231 0.030124,0.0571 0.075308,0.11065 0.1355539,0.16047 0.062323,0.0478 0.1599644,0.0873 0.2929215,0.1185 0.1329579,0.0312 0.301231,0.054 0.5048215,0.0686 v 0.11533 0.11532 H 8.4408368 7.1102273 v -0.11532 -0.11533 c 0.1765837,-0.0312 0.3220057,-0.0669 0.4362658,-0.10749 0.1142599,-0.0405 0.1973583,-0.0856 0.2492947,-0.13553 0.1059503,-0.0996 0.2176127,-0.25085 0.334989,-0.45341 0.1173759,-0.20255 0.2404654,-0.45651 0.3692681,-0.76189 l 1.486418,-3.47765 1.4864181,-3.47767 h 0.10907 0.109071 l 1.470838,3.51505 1.470837,3.51506 c 0.118418,0.28252 0.231118,0.51573 0.338107,0.69959 0.10699,0.18384 0.208264,0.31836 0.303827,0.40354 0.09764,0.0831 0.213978,0.14804 0.349012,0.19476 0.135031,0.0467 0.288767,0.0752 0.461195,0.0856 v 0.11533 0.11533 h -1.667156 -1.667157 v -0.11533 -0.11533 c 0.168273,-0.008 0.309021,-0.0264 0.422242,-0.0546 0.113217,-0.028 0.198916,-0.0659 0.257085,-0.11382 0.06024,-0.0478 0.105437,-0.1007 0.135558,-0.15894 0.03012,-0.0582 0.04518,-0.12151 0.04518,-0.19007 0,-0.0914 -0.02077,-0.20931 -0.06232,-0.35368 -0.04155,-0.14443 -0.10387,-0.31526 -0.18697,-0.51262 l -0.255527,-0.60764 z m -0.174506,-0.4612 -0.716721,-1.70767 -0.716721,-1.70766 -0.735419,1.70766 -0.7354186,1.70767 h 1.4521406 z"
       style="font-style:normal;font-variant:normal;font-weight:400;font-size:8.46666622px;line-height:125%;font-family:'Times New Roman';text-align:start;letter-spacing:0px;word-spacing:0px;text-anchor:start;fill:#000000;fill-opacity:1;stroke:none;stroke-width:0.39887121"
       id="path223" />
  </g>
</svg>
