<?xml version="1.0" encoding="UTF-8" standalone="no"?>
<svg
   xmlns:dc="http://purl.org/dc/elements/1.1/"
   xmlns:cc="http://creativecommons.org/ns#"
   xmlns:rdf="http://www.w3.org/1999/02/22-rdf-syntax-ns#"
   xmlns:svg="http://www.w3.org/2000/svg"
   xmlns="http://www.w3.org/2000/svg"
   id="svg8"
   version="1.1"
   viewBox="0 0 105 148"
   height="148mm"
   width="105mm">
  <defs
     id="defs2">
    <clipPath
       clipPathUnits="userSpaceOnUse"
       id="clipEmfPath1">
      <path
         d="M 0,-0.79951545 H 623.62205 V 109.53362 H 0 Z"
         id="path10" />
    </clipPath>
    <pattern
       id="EMFhbasepattern"
       patternUnits="userSpaceOnUse"
       width="6"
       height="6"
       x="0"
       y="0" />
  </defs>
  <metadata
     id="metadata5">
    <rdf:RDF>
      <cc:Work
         rdf:about="">
        <dc:format>image/svg+xml</dc:format>
        <dc:type
           rdf:resource="http://purl.org/dc/dcmitype/StillImage" />
        <dc:title></dc:title>
      </cc:Work>
    </rdf:RDF>
  </metadata>
  <g
     transform="translate(0,-149)"
     id="layer1">
    <path
       d="m 31.311009,183.69869 h -1.635995 -1.635995 l -0.28669,0.66687 -0.286688,0.66686 c -0.07063,0.16411 -0.123604,0.30746 -0.158924,0.43002 -0.03532,0.12257 -0.05297,0.22437 -0.05297,0.30539 0,0.0644 0.01507,0.12512 0.04518,0.18229 0.03012,0.0571 0.0753,0.11065 0.135558,0.16049 0.06232,0.0478 0.159964,0.0873 0.292921,0.1185 0.13295,0.0312 0.30123,0.054 0.504821,0.0686 v 0.11533 0.11532 h -1.330609 -1.330609 v -0.11532 -0.11533 c 0.176583,-0.0312 0.322006,-0.0669 0.436266,-0.10749 0.114256,-0.0405 0.197357,-0.0856 0.249293,-0.13553 0.10595,-0.0996 0.217614,-0.25085 0.33499,-0.45341 0.117378,-0.20255 0.240466,-0.45651 0.369267,-0.76189 l 1.486418,-3.47765 1.48642,-3.47767 h 0.109071 0.109071 l 1.470837,3.51505 1.470838,3.51506 c 0.118417,0.28252 0.231115,0.51573 0.338104,0.69957 0.106991,0.18386 0.208265,0.31838 0.303828,0.40356 0.09764,0.0831 0.213978,0.14804 0.349013,0.19476 0.135031,0.0467 0.288766,0.0752 0.461194,0.0856 v 0.11533 0.11533 h -1.667157 -1.667156 v -0.11533 -0.11533 c 0.168273,-0.008 0.309021,-0.0264 0.422242,-0.0546 0.113216,-0.028 0.198917,-0.0659 0.257086,-0.11382 0.06024,-0.0478 0.105438,-0.1007 0.135558,-0.15894 0.03012,-0.0582 0.04518,-0.12151 0.04518,-0.19007 0,-0.0914 -0.02077,-0.20931 -0.06232,-0.35368 -0.04155,-0.14443 -0.10387,-0.31526 -0.186972,-0.51262 l -0.255528,-0.60766 z m -0.174506,-0.4612 -0.716723,-1.70767 -0.716721,-1.70766 -0.735418,1.70766 -0.73542,1.70767 h 1.452141 z m 0.311617,-7.90887 -0.919273,1.07508 -0.919273,1.07509 h -0.10595 -0.10595 l 0.327199,-1.07509 0.327199,-1.07508 h 0.698023 z"
       style="font-style:normal;font-variant:normal;font-weight:400;font-size:8.46666622px;line-height:125%;font-family:'Times New Roman';text-align:start;letter-spacing:0px;word-spacing:0px;text-anchor:start;fill:#000000;fill-opacity:1;stroke:none;stroke-width:0.39887121"
       id="path225" />
  </g>
</svg>
