<?xml version="1.0" encoding="UTF-8" standalone="no"?>
<svg
   xmlns:dc="http://purl.org/dc/elements/1.1/"
   xmlns:cc="http://creativecommons.org/ns#"
   xmlns:rdf="http://www.w3.org/1999/02/22-rdf-syntax-ns#"
   xmlns:svg="http://www.w3.org/2000/svg"
   xmlns="http://www.w3.org/2000/svg"
   id="svg8"
   version="1.1"
   viewBox="0 0 105 148"
   height="148mm"
   width="105mm">
  <defs
     id="defs2">
    <clipPath
       clipPathUnits="userSpaceOnUse"
       id="clipEmfPath1">
      <path
         d="M 0,-0.79951545 H 623.62205 V 109.53362 H 0 Z"
         id="path10" />
    </clipPath>
    <pattern
       id="EMFhbasepattern"
       patternUnits="userSpaceOnUse"
       width="6"
       height="6"
       x="0"
       y="0" />
  </defs>
  <metadata
     id="metadata5">
    <rdf:RDF>
      <cc:Work
         rdf:about="">
        <dc:format>image/svg+xml</dc:format>
        <dc:type
           rdf:resource="http://purl.org/dc/dcmitype/StillImage" />
        <dc:title></dc:title>
      </cc:Work>
    </rdf:RDF>
  </metadata>
  <g
     transform="translate(0,-149)"
     id="layer1">
    <path
       d="m 57.074416,186.65877 h -1.667157 -1.667157 v -0.11529 -0.1153 c 0.286689,-0.0145 0.501705,-0.0649 0.64505,-0.15112 0.143344,-0.0862 0.215016,-0.20827 0.215016,-0.36617 0,-0.0914 -0.02077,-0.2093 -0.06232,-0.35368 -0.04155,-0.14438 -0.103873,-0.31525 -0.186971,-0.51261 l -0.255526,-0.60765 -0.255527,-0.60766 h -1.087547 -1.087548 l -0.800858,1.23401 -0.800858,1.23401 c 0.07063,0.0312 0.164118,0.0576 0.280455,0.0795 0.116337,0.0218 0.255527,0.0389 0.417568,0.0514 v 0.1153 0.1153 h -0.467427 -0.467427 l -0.109066,0.16828 -0.109067,0.16828 h -0.27734 -0.27734 l 0.109067,-0.16828 0.109066,-0.16828 h -0.585841 -0.585842 v -0.1153 -0.1153 c 0.176583,-0.0312 0.322004,-0.067 0.436264,-0.10751 0.11426,-0.0405 0.197358,-0.0857 0.249295,-0.13555 0.103873,-0.0976 0.214497,-0.24773 0.331873,-0.45028 0.117376,-0.20255 0.241504,-0.45756 0.372384,-0.76503 l 1.486418,-3.47765 1.486419,-3.47766 h 0.109067 0.109066 l 0.433149,1.03457 0.433148,1.03457 0.666864,-1.02522 0.666863,-1.02523 h 0.27734 0.27734 l -0.835137,1.28387 -0.835137,1.28387 0.928623,2.22184 0.928622,2.22183 c 0.09764,0.23268 0.189048,0.42848 0.274224,0.58741 0.08517,0.15892 0.164118,0.28097 0.236829,0.36615 0.11426,0.13088 0.249814,0.23216 0.406662,0.30383 0.156848,0.0717 0.334989,0.11373 0.534425,0.12619 l 0,0.11531 z m -3.409102,-3.29068 -0.666864,-1.58926 -1.034572,1.58926 z m -0.884996,-2.10654 -0.548448,-1.30879 -1.470838,3.41533 h 0.648166 z m -1.670273,2.56774 H 50.56783 l -0.573378,1.33373 c -0.132957,0.31162 -0.20359,0.54845 -0.211901,0.71049 z"
       style="font-style:normal;font-variant:normal;font-weight:400;font-size:8.46666622px;line-height:125%;font-family:'Times New Roman';text-align:start;letter-spacing:0px;word-spacing:0px;text-anchor:start;fill:#000000;fill-opacity:1;stroke:none;stroke-width:0.39887121"
       id="path227" />
  </g>
</svg>
