<?xml version="1.0" encoding="UTF-8" standalone="no"?>
<svg
   xmlns:dc="http://purl.org/dc/elements/1.1/"
   xmlns:cc="http://creativecommons.org/ns#"
   xmlns:rdf="http://www.w3.org/1999/02/22-rdf-syntax-ns#"
   xmlns:svg="http://www.w3.org/2000/svg"
   xmlns="http://www.w3.org/2000/svg"
   id="svg8"
   version="1.1"
   viewBox="0 0 105 148"
   height="148mm"
   width="105mm">
  <defs
     id="defs2">
    <clipPath
       clipPathUnits="userSpaceOnUse"
       id="clipEmfPath1">
      <path
         d="M 0,-0.79951545 H 623.62205 V 109.53362 H 0 Z"
         id="path10" />
    </clipPath>
    <pattern
       id="EMFhbasepattern"
       patternUnits="userSpaceOnUse"
       width="6"
       height="6"
       x="0"
       y="0" />
  </defs>
  <metadata
     id="metadata5">
    <rdf:RDF>
      <cc:Work
         rdf:about="">
        <dc:format>image/svg+xml</dc:format>
        <dc:type
           rdf:resource="http://purl.org/dc/dcmitype/StillImage" />
        <dc:title></dc:title>
      </cc:Work>
    </rdf:RDF>
  </metadata>
  <g
     transform="translate(0,-149)"
     id="layer1">
    <path
       d="m 69.501747,182.34599 c 0.292921,0.0623 0.548967,0.14334 0.768138,0.24305 0.219172,0.0997 0.401468,0.21814 0.54689,0.35525 0.201513,0.19113 0.352648,0.40355 0.453404,0.63726 0.100757,0.23372 0.151135,0.48873 0.151135,0.76503 0,0.20982 -0.03324,0.41549 -0.09972,0.617 -0.06648,0.20151 -0.166196,0.39887 -0.299153,0.59208 -0.132957,0.19113 -0.290844,0.3568 -0.47366,0.49703 -0.182816,0.14023 -0.390561,0.255 -0.623235,0.34433 -0.230598,0.0873 -0.52248,0.15269 -0.875648,0.19631 -0.353167,0.0436 -0.767619,0.0654 -1.243356,0.0654 h -1.994357 -1.994356 v -0.11529 -0.1153 h 0.158925 0.158926 c 0.176584,0 0.328238,-0.0281 0.454962,-0.0841 0.126725,-0.0561 0.22852,-0.14023 0.305386,-0.25241 0.04778,-0.0727 0.08361,-0.18644 0.107503,-0.34121 0.02389,-0.15477 0.03583,-0.35057 0.03583,-0.5874 v -2.72978 -2.72978 c 0,-0.26176 -0.01506,-0.47522 -0.04519,-0.64037 -0.03012,-0.16516 -0.07531,-0.28202 -0.135553,-0.35057 -0.08102,-0.0914 -0.181778,-0.15996 -0.30227,-0.20566 -0.120493,-0.0457 -0.260721,-0.0686 -0.420685,-0.0686 h -0.158926 -0.158925 v -0.1153 -0.1153 h 1.826082 1.826083 c 0.340703,0 0.647647,0.0125 0.920832,0.0374 0.273186,0.0249 0.512613,0.0623 0.718281,0.11216 0.311618,0.0748 0.586361,0.17866 0.824229,0.31162 0.237869,0.13296 0.438862,0.295 0.602981,0.48613 0.164119,0.18905 0.287208,0.39264 0.369268,0.61078 0.08206,0.21813 0.123089,0.4508 0.123089,0.69802 0,0.2119 -0.0322,0.41289 -0.0966,0.60298 -0.0644,0.19008 -0.161002,0.36926 -0.289804,0.53754 -0.128802,0.1662 -0.288247,0.3111 -0.478334,0.43471 -0.190087,0.12361 -0.410817,0.22592 -0.662189,0.30694 l 4e-6,1e-5 z m -3.265758,-0.33655 c 0.07687,0.0145 0.158925,0.0275 0.246178,0.0389 0.08725,0.0114 0.179699,0.0213 0.277339,0.0296 0.09972,0.006 0.20411,0.0109 0.313176,0.014 0.109067,0.003 0.222807,0.005 0.341222,0.005 0.303308,0 0.568703,-0.0161 0.796185,-0.0483 0.227481,-0.0322 0.417049,-0.0805 0.568704,-0.14489 0.153731,-0.0665 0.289285,-0.1501 0.406661,-0.25086 0.117376,-0.10076 0.216574,-0.21865 0.297595,-0.35368 0.08102,-0.13504 0.141786,-0.27631 0.182296,-0.42381 0.04051,-0.1475 0.06077,-0.30123 0.06077,-0.4612 0,-0.24722 -0.05038,-0.47625 -0.151135,-0.68711 -0.100756,-0.21086 -0.251891,-0.40355 -0.453404,-0.57805 -0.201513,-0.17451 -0.449249,-0.30539 -0.743209,-0.39264 -0.29396,-0.0873 -0.634143,-0.13088 -1.02055,-0.13088 -0.207745,0 -0.405103,0.0114 -0.592074,0.0343 -0.186971,0.0228 -0.363554,0.0571 -0.52975,0.10277 v 1.62355 z m 0,4.03857 c 0.240984,0.0561 0.480411,0.0982 0.718279,0.1262 0.237868,0.0281 0.474179,0.0421 0.708931,0.0421 0.376019,0 0.707373,-0.0421 0.994062,-0.1262 0.286689,-0.0841 0.528713,-0.21035 0.726071,-0.37862 0.197358,-0.17035 0.345376,-0.36044 0.444055,-0.57026 0.09868,-0.20982 0.148018,-0.43938 0.148018,-0.68867 0,-0.16412 -0.02233,-0.32513 -0.067,-0.48302 -0.04466,-0.15789 -0.111662,-0.31266 -0.200992,-0.46431 -0.08933,-0.15165 -0.206707,-0.28721 -0.352129,-0.40666 -0.145422,-0.11945 -0.318889,-0.22281 -0.520402,-0.31006 -0.201513,-0.0872 -0.426917,-0.15269 -0.676212,-0.19631 -0.249295,-0.0436 -0.52248,-0.0654 -0.819556,-0.0654 -0.128802,0 -0.248255,0.001 -0.35836,0.003 -0.110105,0.002 -0.210862,0.005 -0.30227,0.009 -0.09141,0.004 -0.173987,0.01 -0.247736,0.017 -0.07375,0.007 -0.13867,0.0162 -0.194761,0.0266 v 1.73279 z"
       style="font-style:normal;font-variant:normal;font-weight:400;font-size:8.46666622px;line-height:125%;font-family:'Times New Roman';text-align:start;letter-spacing:0px;word-spacing:0px;text-anchor:start;fill:#000000;fill-opacity:1;stroke:none;stroke-width:0.39887121"
       id="path229" />
  </g>
</svg>
