<?xml version="1.0" encoding="UTF-8" standalone="no"?>
<svg
   xmlns:dc="http://purl.org/dc/elements/1.1/"
   xmlns:cc="http://creativecommons.org/ns#"
   xmlns:rdf="http://www.w3.org/1999/02/22-rdf-syntax-ns#"
   xmlns:svg="http://www.w3.org/2000/svg"
   xmlns="http://www.w3.org/2000/svg"
   id="svg8"
   version="1.1"
   viewBox="0 0 105 148"
   height="148mm"
   width="105mm">
  <defs
     id="defs2">
    <clipPath
       clipPathUnits="userSpaceOnUse"
       id="clipEmfPath1">
      <path
         d="M 0,-0.79951545 H 623.62205 V 109.53362 H 0 Z"
         id="path10" />
    </clipPath>
    <pattern
       id="EMFhbasepattern"
       patternUnits="userSpaceOnUse"
       width="6"
       height="6"
       x="0"
       y="0" />
  </defs>
  <metadata
     id="metadata5">
    <rdf:RDF>
      <cc:Work
         rdf:about="">
        <dc:format>image/svg+xml</dc:format>
        <dc:type
           rdf:resource="http://purl.org/dc/dcmitype/StillImage" />
        <dc:title></dc:title>
      </cc:Work>
    </rdf:RDF>
  </metadata>
  <g
     transform="translate(0,-149)"
     id="layer1">
    <path
       d="m 86.822474,178.01449 0.0966,1.43657 0.0966,1.43656 h -0.0966 -0.0966 c -0.128802,-0.43004 -0.28513,-0.79983 -0.468985,-1.10937 -0.183854,-0.30954 -0.395235,-0.55883 -0.634142,-0.74788 -0.238907,-0.18905 -0.501705,-0.33084 -0.788394,-0.42536 -0.143344,-0.0473 -0.292661,-0.0827 -0.447951,-0.10634 -0.15529,-0.0236 -0.316552,-0.0354 -0.483787,-0.0354 -0.140228,0 -0.27708,0.009 -0.410557,0.0269 -0.133476,0.0179 -0.263577,0.0448 -0.390301,0.0806 -0.126725,0.0358 -0.250074,0.0806 -0.370047,0.13439 -0.119973,0.0538 -0.23657,0.11647 -0.349791,0.18814 -0.113222,0.0706 -0.22047,0.15191 -0.321746,0.24384 -0.101276,0.0919 -0.19658,0.1945 -0.28591,0.30772 -0.08933,0.11323 -0.172689,0.2371 -0.250074,0.37161 -0.07739,0.13452 -0.148797,0.27968 -0.214237,0.43549 -0.0644,0.15581 -0.120752,0.32109 -0.169053,0.49586 -0.0483,0.17476 -0.08855,0.359 -0.120751,0.55273 -0.0322,0.19372 -0.05635,0.39692 -0.07245,0.6096 -0.0161,0.21268 -0.02415,0.43483 -0.02415,0.66647 0,0.19113 0.0077,0.37589 0.02298,0.55429 0.01532,0.1784 0.0383,0.35044 0.06894,0.51612 0.03064,0.16568 0.06895,0.32499 0.114909,0.47794 0.04596,0.15295 0.09959,0.29954 0.160873,0.43977 0.06128,0.14023 0.13023,0.27228 0.206836,0.39615 0.07661,0.12387 0.160873,0.23956 0.252801,0.34707 0.09193,0.1075 0.191515,0.20683 0.298763,0.29798 0.107249,0.0911 0.222158,0.17411 0.344728,0.2489 0.123608,0.0748 0.251501,0.14023 0.383679,0.19632 0.132178,0.0561 0.268641,0.10283 0.409389,0.14023 0.140747,0.0374 0.285779,0.0654 0.435096,0.0841 0.149317,0.0187 0.302919,0.0281 0.460806,0.0281 0.137112,0 0.270199,-0.007 0.399261,-0.0218 0.129062,-0.0146 0.254098,-0.0364 0.37511,-0.0654 0.121012,-0.0291 0.237998,-0.0654 0.35096,-0.10907 0.112961,-0.0436 0.221898,-0.0945 0.326809,-0.15269 0.209823,-0.11841 0.430033,-0.29448 0.660631,-0.52819 0.230597,-0.23372 0.471582,-0.52508 0.722954,-0.8741 l 0.0966,0.0623 0.0966,0.0623 c -0.2119,0.37602 -0.441459,0.70166 -0.688676,0.97692 -0.247217,0.27526 -0.512092,0.50014 -0.794626,0.67465 -0.282534,0.1745 -0.591555,0.30538 -0.927064,0.39263 -0.167754,0.0436 -0.34213,0.0763 -0.523129,0.0982 -0.180998,0.0218 -0.368618,0.0327 -0.56286,0.0327 -0.350051,0 -0.680366,-0.0325 -0.990946,-0.0974 -0.310579,-0.0649 -0.601423,-0.1623 -0.87253,-0.29214 -0.271108,-0.12984 -0.52248,-0.29214 -0.754116,-0.48691 -0.231636,-0.19476 -0.443537,-0.42198 -0.635701,-0.68166 -0.143344,-0.1932 -0.268771,-0.39497 -0.376279,-0.60531 -0.107508,-0.21035 -0.197098,-0.42926 -0.268771,-0.65674 -0.07167,-0.22748 -0.125426,-0.46353 -0.161262,-0.70815 -0.03584,-0.24462 -0.05375,-0.49781 -0.05375,-0.75957 0,-0.21086 0.01182,-0.41744 0.03545,-0.61973 0.02363,-0.20229 0.05908,-0.40029 0.10634,-0.59401 0.04726,-0.19373 0.10634,-0.38316 0.177233,-0.56832 0.07089,-0.18515 0.153601,-0.36602 0.248125,-0.5426 0.09452,-0.17658 0.197878,-0.34317 0.31006,-0.49976 0.112183,-0.15659 0.233195,-0.30318 0.363036,-0.43977 0.129841,-0.13659 0.268511,-0.26319 0.41601,-0.37979 0.1475,-0.11659 0.303828,-0.22319 0.468986,-0.31979 0.166196,-0.0976 0.336158,-0.18308 0.509885,-0.25631 0.173727,-0.0732 0.351219,-0.13426 0.532477,-0.18308 0.181258,-0.0488 0.366281,-0.0854 0.55507,-0.10984 0.188788,-0.0244 0.381342,-0.0366 0.577662,-0.0366 0.152693,0 0.304866,0.009 0.45652,0.0281 0.151654,0.0187 0.302789,0.0467 0.453404,0.0841 0.301231,0.0748 0.600385,0.18697 0.897461,0.33654 0.08725,0.0457 0.162042,0.08 0.224365,0.10289 0.06232,0.0229 0.112183,0.0343 0.149577,0.0343 0.05609,0 0.108547,-0.01 0.157367,-0.0296 0.04882,-0.0197 0.094,-0.0494 0.135554,-0.0889 0.05401,-0.0561 0.100237,-0.12309 0.13867,-0.20099 0.03843,-0.0779 0.06907,-0.16672 0.09193,-0.26644 l 0.109066,0 z"
       style="font-style:normal;font-variant:normal;font-weight:400;font-size:8.46666622px;line-height:125%;font-family:'Times New Roman';text-align:start;letter-spacing:0px;word-spacing:0px;text-anchor:start;fill:#000000;fill-opacity:1;stroke:none;stroke-width:0.39887121"
       id="path231" />
  </g>
</svg>
