<?xml version="1.0" encoding="UTF-8" standalone="no"?>
<svg
   xmlns:dc="http://purl.org/dc/elements/1.1/"
   xmlns:cc="http://creativecommons.org/ns#"
   xmlns:rdf="http://www.w3.org/1999/02/22-rdf-syntax-ns#"
   xmlns:svg="http://www.w3.org/2000/svg"
   xmlns="http://www.w3.org/2000/svg"
   id="svg8"
   version="1.1"
   viewBox="0 0 105 148"
   height="148mm"
   width="105mm">
  <defs
     id="defs2">
    <clipPath
       clipPathUnits="userSpaceOnUse"
       id="clipEmfPath1">
      <path
         d="M 0,-0.79951545 H 623.62205 V 109.53362 H 0 Z"
         id="path10" />
    </clipPath>
    <pattern
       id="EMFhbasepattern"
       patternUnits="userSpaceOnUse"
       width="6"
       height="6"
       x="0"
       y="0" />
  </defs>
  <metadata
     id="metadata5">
    <rdf:RDF>
      <cc:Work
         rdf:about="">
        <dc:format>image/svg+xml</dc:format>
        <dc:type
           rdf:resource="http://purl.org/dc/dcmitype/StillImage" />
        <dc:title></dc:title>
      </cc:Work>
    </rdf:RDF>
  </metadata>
  <g
     transform="translate(0,-149)"
     id="layer1">
    <path
       d="m 13.283861,197.66925 0.0483,0.71828 0.0483,0.71829 0.0483,0.71828 0.0483,0.71828 h -0.0483 -0.0483 -0.0483 -0.0483 c -0.0644,-0.21502 -0.135685,-0.41497 -0.213849,-0.59987 -0.07817,-0.18489 -0.163211,-0.35473 -0.255139,-0.5095 -0.09193,-0.15477 -0.190736,-0.29448 -0.296426,-0.41912 -0.105691,-0.12465 -0.218263,-0.23424 -0.337716,-0.32876 -0.119454,-0.0945 -0.244881,-0.17723 -0.37628,-0.24813 -0.1314,-0.0709 -0.268771,-0.12997 -0.412116,-0.17723 -0.143344,-0.0473 -0.292662,-0.0827 -0.447951,-0.10634 -0.15529,-0.0236 -0.316552,-0.0354 -0.483787,-0.0354 -0.140228,0 -0.27708,0.009 -0.410557,0.0269 -0.1334762,0.0179 -0.2635768,0.0448 -0.3903015,0.0806 -0.1267248,0.0358 -0.2500736,0.0806 -0.3700467,0.13439 -0.119973,0.0538 -0.2365702,0.11647 -0.3497915,0.18814 -0.1132212,0.0706 -0.2204697,0.15191 -0.3217456,0.24384 -0.1012758,0.0919 -0.1965791,0.1945 -0.2859096,0.30773 -0.089331,0.11322 -0.1726886,0.23709 -0.2500739,0.3716 -0.077385,0.13452 -0.1487979,0.27968 -0.2142379,0.43549 -0.064401,0.15581 -0.1207519,0.32109 -0.1690526,0.49586 -0.048301,0.17476 -0.088551,0.359 -0.1207519,0.55273 -0.032201,0.19372 -0.056351,0.39692 -0.072451,0.6096 -0.0161,0.21268 -0.02415,0.43483 -0.02415,0.66647 0,0.19113 0.00766,0.37589 0.022982,0.55429 0.015321,0.1784 0.038303,0.35044 0.068946,0.51612 0.030642,0.16568 0.068946,0.32499 0.1149094,0.47794 0.045964,0.15295 0.099588,0.29954 0.1608731,0.43977 0.061285,0.14023 0.1302303,0.27228 0.2068363,0.39615 0.076606,0.12387 0.1608727,0.23956 0.2528,0.34707 0.091927,0.1075 0.1915151,0.20683 0.2987635,0.29798 0.1072485,0.0911 0.2221575,0.17411 0.3447272,0.2489 0.1236087,0.0748 0.2515021,0.14023 0.3836802,0.19632 0.1321781,0.0561 0.2686409,0.10283 0.4093885,0.14023 0.1407475,0.0374 0.28578,0.0654 0.435097,0.0841 0.149317,0.0187 0.302919,0.0281 0.460805,0.0281 0.137112,0 0.270199,-0.007 0.39926,-0.0218 0.129062,-0.0145 0.254098,-0.0364 0.37511,-0.0654 0.121011,-0.0291 0.237997,-0.0654 0.350958,-0.10907 0.112961,-0.0436 0.221897,-0.0945 0.326808,-0.15269 0.104912,-0.0592 0.21242,-0.13283 0.322526,-0.22086 0.110105,-0.088 0.222807,-0.19048 0.338106,-0.30733 0.1153,-0.11686 0.233196,-0.24813 0.353689,-0.39381 0.120493,-0.14569 0.243582,-0.30578 0.369269,-0.48029 l 0.0483,0.0312 0.0483,0.0312 0.0483,0.0312 0.0483,0.0312 c -0.10595,0.18801 -0.216315,0.36342 -0.331094,0.52624 -0.114779,0.16282 -0.233973,0.31305 -0.357581,0.45068 -0.123608,0.13763 -0.251631,0.26266 -0.384069,0.37511 -0.132437,0.11244 -0.269289,0.21229 -0.410556,0.29954 -0.141267,0.0873 -0.289156,0.1636 -0.443666,0.22904 -0.154511,0.0654 -0.315643,0.11997 -0.483398,0.16359 -0.167754,0.0436 -0.34213,0.0764 -0.523129,0.0982 -0.180998,0.0218 -0.368618,0.0327 -0.56286,0.0327 -0.350051,0 -0.6803661,-0.0325 -0.9909454,-0.0974 -0.3105794,-0.0649 -0.6014229,-0.1623 -0.8725306,-0.29214 -0.2711078,-0.12984 -0.5224797,-0.29214 -0.7541158,-0.48691 -0.2316361,-0.19476 -0.4435364,-0.42198 -0.6357009,-0.68166 -0.1433445,-0.1932 -0.2687709,-0.39497 -0.3762793,-0.60531 -0.1075084,-0.21035 -0.1970987,-0.42926 -0.268771,-0.65674 -0.071672,-0.22748 -0.1254264,-0.46353 -0.1612625,-0.70815 -0.035836,-0.24462 -0.053754,-0.49781 -0.053754,-0.75957 0,-0.21086 0.011815,-0.41744 0.035447,-0.61973 0.023631,-0.20229 0.059078,-0.40029 0.1063399,-0.59401 0.047262,-0.19373 0.1063399,-0.38316 0.1772331,-0.56832 0.070893,-0.18515 0.1536021,-0.36602 0.2481264,-0.5426 0.094524,-0.17658 0.1978775,-0.34317 0.31006,-0.49976 0.1121825,-0.15659 0.2331942,-0.30318 0.363035,-0.43977 0.1298408,-0.13659 0.2685108,-0.26319 0.41601,-0.37979 0.1474992,-0.11659 0.3038275,-0.22319 0.468985,-0.31979 0.1661965,-0.0976 0.3361583,-0.18308 0.5098855,-0.25631 0.1737272,-0.0732 0.3512198,-0.13426 0.5324777,-0.18308 0.1812579,-0.0488 0.3662811,-0.0854 0.5550697,-0.10984 0.1887886,-0.0244 0.3813428,-0.0366 0.5776618,-0.0366 0.152693,0 0.304866,0.009 0.45652,0.028 0.151654,0.0187 0.302789,0.0467 0.453404,0.0841 0.150615,0.0374 0.300711,0.0841 0.450287,0.14023 0.149577,0.0561 0.298633,0.12152 0.447171,0.19631 0.04363,0.0229 0.08414,0.0429 0.121531,0.06 0.03739,0.0171 0.07167,0.0314 0.102834,0.0429 0.03116,0.0114 0.05921,0.02 0.08414,0.0257 0.02493,0.006 0.04674,0.009 0.06544,0.009 0.02805,0 0.05518,-0.002 0.08141,-0.007 0.02623,-0.005 0.05155,-0.0123 0.07596,-0.0222 0.02441,-0.01 0.04791,-0.0222 0.07051,-0.037 0.02259,-0.0148 0.04428,-0.0321 0.06505,-0.0518 0.02701,-0.028 0.05207,-0.0588 0.07518,-0.0923 0.02311,-0.0335 0.04427,-0.0697 0.06349,-0.10867 0.01922,-0.0389 0.03648,-0.0806 0.0518,-0.12504 0.01532,-0.0444 0.02869,-0.0915 0.04012,-0.1414 h 0.05453 0.05454 0.05453 z m -1.59549,-2.55527 -0.459636,0.53754 -0.459637,0.53755 -0.459636,0.53754 -0.4596367,0.53754 h -0.052975 -0.052975 -0.052975 -0.052975 l 0.1635994,-0.53754 0.1635994,-0.53754 0.1635999,-0.53755 0.163599,-0.53754 h 0.349012 0.349012 0.349012 z"
       style="font-style:normal;font-variant:normal;font-weight:400;font-size:8.46666622px;line-height:125%;font-family:'Times New Roman';text-align:start;letter-spacing:0px;word-spacing:0px;text-anchor:start;fill:#000000;fill-opacity:1;stroke:none;stroke-width:0.39887121"
       id="path233" />
  </g>
</svg>
