<?xml version="1.0" encoding="UTF-8" standalone="no"?>
<svg
   xmlns:dc="http://purl.org/dc/elements/1.1/"
   xmlns:cc="http://creativecommons.org/ns#"
   xmlns:rdf="http://www.w3.org/1999/02/22-rdf-syntax-ns#"
   xmlns:svg="http://www.w3.org/2000/svg"
   xmlns="http://www.w3.org/2000/svg"
   id="svg8"
   version="1.1"
   viewBox="0 0 105 148"
   height="148mm"
   width="105mm">
  <defs
     id="defs2">
    <clipPath
       clipPathUnits="userSpaceOnUse"
       id="clipEmfPath1">
      <path
         d="M 0,-0.79951545 H 623.62205 V 109.53362 H 0 Z"
         id="path10" />
    </clipPath>
    <pattern
       id="EMFhbasepattern"
       patternUnits="userSpaceOnUse"
       width="6"
       height="6"
       x="0"
       y="0" />
  </defs>
  <metadata
     id="metadata5">
    <rdf:RDF>
      <cc:Work
         rdf:about="">
        <dc:format>image/svg+xml</dc:format>
        <dc:type
           rdf:resource="http://purl.org/dc/dcmitype/StillImage" />
        <dc:title></dc:title>
      </cc:Work>
    </rdf:RDF>
  </metadata>
  <g
     transform="translate(0,-149)"
     id="layer1">
    <path
       d="m 28.578071,204.33165 c -0.204628,0.36251 -0.43094,0.67972 -0.678936,0.9516 -0.247995,0.27189 -0.517674,0.49846 -0.809036,0.67972 -0.291363,0.18126 -0.604409,0.3172 -0.939139,0.40783 -0.334729,0.0906 -0.691142,0.13594 -1.069239,0.13594 -0.168273,0 -0.331872,-0.007 -0.490797,-0.0222 -0.158925,-0.0148 -0.313176,-0.037 -0.462753,-0.0666 -0.149577,-0.0296 -0.294479,-0.0666 -0.434707,-0.11101 -0.140229,-0.0444 -0.275783,-0.0962 -0.406663,-0.15542 l -0.121533,0.24774 -0.121532,0.24773 -0.121532,0.24774 -0.121533,0.24773 h -0.13867 -0.13867 -0.13867 -0.13867 l 0.151135,-0.30694 0.151135,-0.30694 0.151135,-0.30695 0.151135,-0.30694 c -0.0966,-0.0613 -0.190347,-0.12737 -0.281235,-0.19827 -0.09089,-0.0709 -0.17892,-0.14659 -0.264095,-0.22709 -0.08517,-0.0805 -0.167493,-0.16581 -0.246955,-0.25592 -0.07946,-0.0901 -0.156067,-0.18502 -0.229815,-0.28474 -0.143345,-0.1932 -0.268772,-0.39498 -0.376281,-0.60532 -0.107508,-0.21034 -0.197099,-0.42925 -0.268771,-0.65674 -0.07167,-0.22748 -0.125427,-0.46353 -0.161264,-0.70815 -0.03584,-0.24462 -0.05375,-0.49781 -0.05375,-0.75957 0,-0.20567 0.0113,-0.40731 0.03389,-0.60493 0.02259,-0.19761 0.05648,-0.3912 0.101664,-0.58077 0.04519,-0.18957 0.101665,-0.37511 0.169441,-0.55663 0.06778,-0.18152 0.146849,-0.35901 0.237217,-0.53248 0.09349,-0.18281 0.196711,-0.35524 0.309674,-0.51728 0.112962,-0.16204 0.235663,-0.31369 0.368101,-0.45496 0.132438,-0.14127 0.274615,-0.27215 0.426529,-0.39264 0.151914,-0.12049 0.313566,-0.2306 0.484956,-0.33032 0.165157,-0.0966 0.334209,-0.18113 0.507156,-0.25358 0.172948,-0.0725 0.349791,-0.13283 0.530529,-0.18113 0.180738,-0.0483 0.365372,-0.0845 0.553901,-0.10867 0.188529,-0.0241 0.380954,-0.0362 0.577274,-0.0362 0.127763,0 0.254618,0.006 0.380563,0.0187 0.125946,0.0125 0.250982,0.0312 0.37511,0.0561 0.124127,0.0249 0.247346,0.0561 0.369655,0.0935 0.12231,0.0374 0.24371,0.081 0.364202,0.13088 l 0.109067,-0.22125 0.109068,-0.22125 0.109067,-0.22125 0.109068,-0.22125 h 0.13867 0.13867 0.13867 0.13867 l -0.135555,0.27423 -0.135555,0.27422 -0.135555,0.27423 -0.135555,0.27422 c 0.02805,0.0125 0.05415,0.0234 0.0783,0.0327 0.02415,0.009 0.04636,0.0171 0.06661,0.0234 0.02025,0.006 0.03856,0.0109 0.05492,0.014 0.01636,0.003 0.03077,0.005 0.04324,0.005 0.0644,0 0.123606,-0.0122 0.177619,-0.0366 0.05401,-0.0244 0.102833,-0.061 0.146458,-0.10984 0.04363,-0.0488 0.08206,-0.10985 0.115297,-0.18308 0.03324,-0.0732 0.06128,-0.15867 0.08414,-0.25631 h 0.05453 0.05454 0.05454 0.05453 l 0.0483,0.71828 0.0483,0.71828 0.0483,0.71828 0.0483,0.71828 h -0.0483 -0.0483 -0.0483 -0.0483 c -0.06752,-0.2254 -0.143087,-0.43458 -0.226705,-0.62752 -0.08362,-0.19295 -0.175287,-0.36966 -0.275005,-0.53015 -0.09972,-0.16048 -0.207487,-0.30474 -0.323305,-0.43276 -0.115818,-0.12802 -0.239687,-0.23982 -0.371605,-0.33538 l -0.83202,1.69053 -0.83202,1.69053 -0.83202,1.69053 -0.83202,1.69053 c 0.131918,0.0966 0.270069,0.18113 0.414452,0.25358 0.144384,0.0725 0.295,0.13283 0.451848,0.18113 0.156848,0.0483 0.319929,0.0845 0.489243,0.10867 0.169313,0.0242 0.344859,0.0362 0.526637,0.0362 0.157885,0 0.310577,-0.01 0.458075,-0.03 0.147498,-0.02 0.289803,-0.05 0.426915,-0.09 0.137112,-0.04 0.26903,-0.09 0.395755,-0.14997 0.126725,-0.06 0.248257,-0.12998 0.364595,-0.20996 0.09141,-0.0634 0.184764,-0.13737 0.280067,-0.22203 0.0953,-0.0847 0.192555,-0.17995 0.291753,-0.2859 0.0992,-0.10595 0.200344,-0.22255 0.303437,-0.3498 0.103094,-0.12724 0.208135,-0.26513 0.315123,-0.41367 l 0.0483,0.0312 0.0483,0.0312 0.0483,0.0312 z m -2.01305,-5.9706 c -0.08829,-0.0405 -0.17944,-0.076 -0.273444,-0.10634 -0.094,-0.0304 -0.190866,-0.0557 -0.290583,-0.076 -0.09972,-0.0203 -0.202292,-0.0354 -0.307722,-0.0456 -0.105431,-0.0101 -0.213718,-0.0152 -0.324861,-0.0152 -0.306425,0 -0.590128,0.0373 -0.851108,0.11179 -0.260981,0.0745 -0.499239,0.18633 -0.714774,0.33539 -0.215536,0.14905 -0.40835,0.33538 -0.578441,0.55896 -0.170091,0.22359 -0.31746,0.48444 -0.442107,0.78256 -0.06544,0.15685 -0.1227,0.32291 -0.17178,0.4982 -0.04908,0.17528 -0.08998,0.35978 -0.1227,0.55351 -0.03272,0.19372 -0.05726,0.39666 -0.07362,0.60882 -0.01636,0.21216 -0.02454,0.43353 -0.02454,0.66413 0,0.30642 0.01857,0.59467 0.0557,0.86474 0.03713,0.27007 0.09284,0.52196 0.167106,0.75567 0.07427,0.23371 0.167105,0.44925 0.278509,0.64661 0.111404,0.19736 0.241375,0.37654 0.389913,0.53754 l 0.821112,-1.66871 0.821113,-1.66871 0.821112,-1.66872 z"
       style="font-style:normal;font-variant:normal;font-weight:400;font-size:8.46666622px;line-height:125%;font-family:'Times New Roman';text-align:start;letter-spacing:0px;word-spacing:0px;text-anchor:start;fill:#000000;fill-opacity:1;stroke:none;stroke-width:0.39887121"
       id="path235" />
  </g>
</svg>
