<?xml version="1.0" encoding="UTF-8" standalone="no"?>
<svg
   xmlns:dc="http://purl.org/dc/elements/1.1/"
   xmlns:cc="http://creativecommons.org/ns#"
   xmlns:rdf="http://www.w3.org/1999/02/22-rdf-syntax-ns#"
   xmlns:svg="http://www.w3.org/2000/svg"
   xmlns="http://www.w3.org/2000/svg"
   id="svg8"
   version="1.1"
   viewBox="0 0 105 148"
   height="148mm"
   width="105mm">
  <defs
     id="defs2">
    <clipPath
       clipPathUnits="userSpaceOnUse"
       id="clipEmfPath1">
      <path
         d="M 0,-0.79951545 H 623.62205 V 109.53362 H 0 Z"
         id="path10" />
    </clipPath>
    <pattern
       id="EMFhbasepattern"
       patternUnits="userSpaceOnUse"
       width="6"
       height="6"
       x="0"
       y="0" />
  </defs>
  <metadata
     id="metadata5">
    <rdf:RDF>
      <cc:Work
         rdf:about="">
        <dc:format>image/svg+xml</dc:format>
        <dc:type
           rdf:resource="http://purl.org/dc/dcmitype/StillImage" />
        <dc:title></dc:title>
      </cc:Work>
    </rdf:RDF>
  </metadata>
  <g
     transform="translate(0,-149)"
     id="layer1">
    <path
       d="m 35.633111,206.31353 v -0.0576 -0.0576 -0.0576 -0.0576 h 0.07946 0.07946 0.07946 0.07946 c 0.08933,0 0.172168,-0.007 0.248514,-0.0214 0.07635,-0.0143 0.146201,-0.0357 0.209563,-0.0643 0.06336,-0.0286 0.120234,-0.0643 0.170612,-0.10712 0.05038,-0.0428 0.09427,-0.0928 0.131661,-0.14996 0.02285,-0.0343 0.04285,-0.0792 0.05999,-0.13478 0.01714,-0.0556 0.03142,-0.12179 0.04285,-0.19866 0.01143,-0.0769 0.02,-0.16438 0.02571,-0.26253 0.0057,-0.0982 0.0086,-0.20697 0.0086,-0.32642 v -1.36489 -1.36489 -1.36489 -1.36489 c 0,-0.13192 -0.0036,-0.2515 -0.01091,-0.35875 -0.0073,-0.10725 -0.01818,-0.20216 -0.03272,-0.28474 -0.01454,-0.0826 -0.03272,-0.15282 -0.05454,-0.21073 -0.02181,-0.0579 -0.04726,-0.10348 -0.07635,-0.13672 -0.04051,-0.0457 -0.08595,-0.0857 -0.136332,-0.11997 -0.05038,-0.0343 -0.10569,-0.0628 -0.165935,-0.0857 -0.06025,-0.0229 -0.125426,-0.04 -0.19554,-0.0514 -0.07011,-0.0114 -0.145161,-0.0171 -0.225143,-0.0171 h -0.07946 -0.07946 -0.07946 -0.07946 v -0.0576 -0.0577 -0.0576 -0.0576 h 0.860065 0.860065 0.860065 0.860065 c 0.315773,0 0.61259,0.009 0.890449,0.0269 0.27786,0.0179 0.536763,0.0448 0.776709,0.0806 0.239945,0.0358 0.460934,0.0806 0.662966,0.13438 0.202032,0.0538 0.385108,0.11647 0.549226,0.18814 0.165158,0.0717 0.322137,0.15529 0.470935,0.25085 0.148798,0.0956 0.289417,0.20307 0.421855,0.32253 0.132438,0.11945 0.256697,0.25085 0.372775,0.3942 0.116078,0.14334 0.223977,0.29863 0.323695,0.46587 0.100757,0.16723 0.188919,0.34096 0.264486,0.52118 0.07557,0.18022 0.138541,0.36693 0.188919,0.56013 0.05038,0.1932 0.08816,0.3929 0.113351,0.59909 0.02519,0.20619 0.03778,0.41887 0.03778,0.63804 0,0.29396 -0.02233,0.57584 -0.067,0.84565 -0.04467,0.26981 -0.111664,0.52754 -0.200994,0.7732 -0.08933,0.24565 -0.200995,0.47924 -0.334991,0.70074 -0.133996,0.22151 -0.290325,0.43094 -0.468987,0.6283 -0.200475,0.22021 -0.427178,0.41289 -0.680108,0.57805 -0.252931,0.16516 -0.532089,0.30279 -0.837474,0.41289 -0.305386,0.11011 -0.637,0.19269 -0.994841,0.24774 -0.357841,0.055 -0.74191,0.0826 -1.152207,0.0826 h -0.944202 l -0.944203,0 -0.944202,0 z m 2.41192,-0.61076 c 0.131918,0.0291 0.258513,0.0545 0.379785,0.0764 0.121272,0.0218 0.23722,0.04 0.347845,0.0545 0.110625,0.0145 0.215927,0.0255 0.315905,0.0327 0.09998,0.007 0.194633,0.0109 0.283965,0.0109 0.240983,0 0.47171,-0.0212 0.692179,-0.0635 0.220469,-0.0423 0.430681,-0.10582 0.630636,-0.19048 0.199955,-0.0847 0.389653,-0.19048 0.569094,-0.31746 0.179441,-0.12699 0.348624,-0.27514 0.507551,-0.44445 0.158925,-0.16931 0.297984,-0.35368 0.417178,-0.55312 0.119194,-0.19943 0.218522,-0.41393 0.297985,-0.64349 0.07946,-0.22956 0.139059,-0.47418 0.17879,-0.73386 0.03973,-0.25968 0.0596,-0.53443 0.0596,-0.82423 0,-0.29188 -0.01987,-0.56832 -0.0596,-0.8293 -0.03973,-0.26098 -0.09933,-0.50651 -0.178791,-0.73658 -0.07946,-0.23008 -0.17879,-0.44471 -0.297984,-0.64388 -0.119194,-0.19918 -0.258253,-0.3829 -0.417178,-0.55117 -0.158927,-0.16828 -0.329149,-0.31552 -0.510668,-0.44172 -0.181518,-0.12621 -0.374332,-0.23138 -0.578442,-0.31552 -0.20411,-0.0841 -0.419516,-0.14724 -0.646218,-0.18931 -0.226701,-0.0421 -0.464699,-0.0631 -0.713992,-0.0631 -0.09349,0 -0.190219,0.004 -0.290198,0.0113 -0.09998,0.008 -0.203202,0.0188 -0.309672,0.0339 -0.10647,0.0151 -0.216186,0.0339 -0.329148,0.0565 -0.112961,0.0226 -0.229169,0.0489 -0.348622,0.0791 v 1.79648 1.79647 1.79648 z"
       style="font-style:normal;font-variant:normal;font-weight:400;font-size:8.46666622px;line-height:125%;font-family:'Times New Roman';text-align:start;letter-spacing:0px;word-spacing:0px;text-anchor:start;fill:#000000;fill-opacity:1;stroke:none;stroke-width:0.39887121"
       id="path237" />
  </g>
</svg>
