<?xml version="1.0" encoding="UTF-8" standalone="no"?>
<svg
   xmlns:dc="http://purl.org/dc/elements/1.1/"
   xmlns:cc="http://creativecommons.org/ns#"
   xmlns:rdf="http://www.w3.org/1999/02/22-rdf-syntax-ns#"
   xmlns:svg="http://www.w3.org/2000/svg"
   xmlns="http://www.w3.org/2000/svg"
   id="svg8"
   version="1.1"
   viewBox="0 0 105 148"
   height="148mm"
   width="105mm">
  <defs
     id="defs2">
    <clipPath
       clipPathUnits="userSpaceOnUse"
       id="clipEmfPath1">
      <path
         d="M 0,-0.79951545 H 623.62205 V 109.53362 H 0 Z"
         id="path10" />
    </clipPath>
    <pattern
       id="EMFhbasepattern"
       patternUnits="userSpaceOnUse"
       width="6"
       height="6"
       x="0"
       y="0" />
  </defs>
  <metadata
     id="metadata5">
    <rdf:RDF>
      <cc:Work
         rdf:about="">
        <dc:format>image/svg+xml</dc:format>
        <dc:type
           rdf:resource="http://purl.org/dc/dcmitype/StillImage" />
        <dc:title></dc:title>
      </cc:Work>
    </rdf:RDF>
  </metadata>
  <g
     transform="translate(0,-149)"
     id="layer1">
    <path
       d="m 53.688261,198.32365 v 1.67028 1.67027 h 0.928625 0.928625 c 0.240983,0 0.441976,-0.0182 0.602977,-0.0545 0.161002,-0.0363 0.282013,-0.0909 0.363033,-0.1636 0.10803,-0.0956 0.192168,-0.22748 0.252415,-0.39575 0.06025,-0.16827 0.0966,-0.3729 0.109065,-0.61388 h 0.1153 0.1153 v 1.47084 1.47083 h -0.1153 -0.1153 c -0.0291,-0.20567 -0.05819,-0.37446 -0.08728,-0.50639 -0.02908,-0.13191 -0.05816,-0.22696 -0.08723,-0.28513 -0.03739,-0.0727 -0.08673,-0.13763 -0.148013,-0.19476 -0.06128,-0.0571 -0.134517,-0.10646 -0.219697,-0.14801 -0.08517,-0.0416 -0.193199,-0.0727 -0.324078,-0.0935 -0.130878,-0.0208 -0.284609,-0.0312 -0.461192,-0.0312 h -0.928625 -0.928625 v 1.39293 1.39293 c 0,0.18697 0.0042,0.33759 0.01248,0.45185 0.0083,0.11426 0.02079,0.19216 0.03742,0.23371 0.0166,0.0395 0.03944,0.0753 0.06853,0.10755 0.02908,0.0322 0.06441,0.0607 0.105975,0.0857 0.04155,0.0229 0.101797,0.04 0.18074,0.0514 0.07894,0.0114 0.176583,0.0172 0.29292,0.0172 h 0.716725 0.716725 c 0.238907,0 0.445093,-0.008 0.61856,-0.0249 0.173467,-0.0166 0.314213,-0.0415 0.42224,-0.0747 0.108027,-0.0332 0.213977,-0.0825 0.31785,-0.14795 0.103873,-0.0654 0.20567,-0.147 0.30539,-0.24467 0.1288,-0.12881 0.259159,-0.29033 0.391078,-0.48457 0.131918,-0.19425 0.265395,-0.42121 0.400432,-0.68089 h 0.124645 0.124645 l -0.364595,1.0595 -0.364595,1.05949 h -3.256425 -3.256425 v -0.11529 -0.1153 h 0.149575 0.149575 c 0.09972,0 0.196837,-0.0119 0.29136,-0.0358 0.09452,-0.0239 0.18645,-0.0597 0.27578,-0.10753 0.06648,-0.0332 0.122053,-0.0747 0.16672,-0.12459 0.04467,-0.0499 0.07843,-0.10805 0.10128,-0.17457 0.02493,-0.0665 0.04363,-0.16775 0.0561,-0.30382 0.01247,-0.13608 0.0187,-0.30695 0.0187,-0.51262 v -2.74535 -2.74535 c 0,-0.26799 -0.0135,-0.48457 -0.04051,-0.64973 -0.02701,-0.16516 -0.06752,-0.2789 -0.121538,-0.34123 -0.07479,-0.0831 -0.174503,-0.14541 -0.29915,-0.18696 -0.124647,-0.0416 -0.274223,-0.0623 -0.44873,-0.0623 h -0.14958 -0.14958 v -0.1153 -0.1153 h 3.25641 3.25641 l 0.04675,0.92551 0.04675,0.9255 h -0.12153 -0.12153 c -0.04363,-0.22229 -0.08986,-0.40978 -0.138678,-0.56247 -0.04882,-0.15269 -0.100239,-0.27059 -0.154252,-0.35369 -0.05193,-0.0831 -0.116852,-0.15633 -0.194755,-0.21969 -0.0779,-0.0634 -0.168792,-0.11686 -0.272665,-0.16049 -0.0831,-0.0312 -0.197881,-0.0545 -0.344342,-0.0701 -0.146462,-0.0156 -0.324605,-0.0234 -0.534428,-0.0234 l -1.159225,-5e-5 z"
       style="font-style:normal;font-variant:normal;font-weight:400;font-size:8.46666622px;line-height:125%;font-family:'Times New Roman';text-align:start;letter-spacing:0px;word-spacing:0px;text-anchor:start;fill:#000000;fill-opacity:1;stroke:none;stroke-width:0.39887121"
       id="path239" />
  </g>
</svg>
