<?xml version="1.0" encoding="UTF-8" standalone="no"?>
<svg
   xmlns:dc="http://purl.org/dc/elements/1.1/"
   xmlns:cc="http://creativecommons.org/ns#"
   xmlns:rdf="http://www.w3.org/1999/02/22-rdf-syntax-ns#"
   xmlns:svg="http://www.w3.org/2000/svg"
   xmlns="http://www.w3.org/2000/svg"
   id="svg8"
   version="1.1"
   viewBox="0 0 105 148"
   height="148mm"
   width="105mm">
  <defs
     id="defs2">
    <clipPath
       clipPathUnits="userSpaceOnUse"
       id="clipEmfPath1">
      <path
         d="M 0,-0.79951545 H 623.62205 V 109.53362 H 0 Z"
         id="path10" />
    </clipPath>
    <pattern
       id="EMFhbasepattern"
       patternUnits="userSpaceOnUse"
       width="6"
       height="6"
       x="0"
       y="0" />
  </defs>
  <metadata
     id="metadata5">
    <rdf:RDF>
      <cc:Work
         rdf:about="">
        <dc:format>image/svg+xml</dc:format>
        <dc:type
           rdf:resource="http://purl.org/dc/dcmitype/StillImage" />
        <dc:title></dc:title>
      </cc:Work>
    </rdf:RDF>
  </metadata>
  <g
     transform="translate(0,-149)"
     id="layer1">
    <path
       d="m 67.829481,201.78261 h 1.9632 1.9632 v -1.20907 -1.20908 c 0,-0.21606 -0.0067,-0.39524 -0.02025,-0.53754 -0.0135,-0.14231 -0.03375,-0.24774 -0.06075,-0.3163 -0.02077,-0.0519 -0.05296,-0.10024 -0.09659,-0.1449 -0.04363,-0.0447 -0.09868,-0.0857 -0.165162,-0.12309 -0.08933,-0.0498 -0.181262,-0.0872 -0.275785,-0.11215 -0.09452,-0.0249 -0.191642,-0.0374 -0.291355,-0.0374 h -0.14958 -0.14958 v -0.1153 -0.1153 h 1.80738 1.80738 v 0.1153 0.1153 h -0.14957 -0.14957 c -0.09972,0 -0.196842,0.012 -0.291367,0.0358 -0.09453,0.0239 -0.186453,0.0597 -0.275783,0.10752 -0.06648,0.0332 -0.122567,0.0753 -0.16827,0.12615 -0.0457,0.0509 -0.08102,0.11064 -0.10595,0.17924 -0.02287,0.0665 -0.04002,0.16828 -0.05145,0.3054 -0.01143,0.13711 -0.01715,0.30954 -0.01715,0.51728 v 2.72666 2.72666 c 0,0.21397 0.0067,0.39159 0.02025,0.53286 0.0135,0.14127 0.03375,0.24618 0.06075,0.31474 0.02077,0.0519 0.05244,0.10023 0.09503,0.14489 0.04259,0.0447 0.09609,0.0857 0.160497,0.12309 0.09141,0.0498 0.184892,0.0872 0.280455,0.11216 0.09556,0.0249 0.193205,0.0374 0.292925,0.0374 h 0.14957 0.14957 v 0.1153 0.11529 h -1.80738 -1.80738 v -0.11529 -0.1153 h 0.149575 0.149575 c 0.17243,0 0.321487,-0.0254 0.447172,-0.0763 0.125686,-0.0509 0.227998,-0.12724 0.306938,-0.22904 0.05194,-0.0665 0.0909,-0.1797 0.116865,-0.33966 0.02597,-0.15996 0.03896,-0.36666 0.03896,-0.62011 v -1.28698 -1.28699 h -1.9632 -1.9632 v 1.28699 1.28698 c 0,0.21397 0.0067,0.39159 0.02025,0.53286 0.0135,0.14127 0.03375,0.24618 0.06075,0.31474 0.02077,0.0519 0.05296,0.10023 0.09659,0.1449 0.04363,0.0447 0.09868,0.0857 0.16517,0.12308 0.08933,0.0498 0.181257,0.0872 0.275782,0.11216 0.09453,0.0249 0.191648,0.0374 0.291368,0.0374 h 0.152695 0.152695 v 0.1153 0.11529 h -1.810505 -1.810505 v -0.11529 -0.1153 h 0.149575 0.149575 c 0.174507,0 0.325123,-0.0255 0.45185,-0.0764 0.126727,-0.0509 0.229563,-0.12724 0.30851,-0.22904 0.04985,-0.0665 0.08723,-0.1797 0.112155,-0.33966 0.02492,-0.15996 0.03739,-0.36666 0.03739,-0.62011 v -2.72666 -2.72666 c 0,-0.21606 -0.0067,-0.39524 -0.02025,-0.53754 -0.0135,-0.14231 -0.03375,-0.24774 -0.06075,-0.3163 -0.02077,-0.0519 -0.05244,-0.10024 -0.09503,-0.1449 -0.04259,-0.0447 -0.09609,-0.0857 -0.160498,-0.12309 -0.09141,-0.0498 -0.184892,-0.0872 -0.280455,-0.11215 -0.09556,-0.0249 -0.193205,-0.0374 -0.292925,-0.0374 h -0.14957 -0.14957 v -0.1153 -0.1153 h 1.8105 1.8105 v 0.1153 0.1153 h -0.15269 -0.15269 c -0.09972,0 -0.196843,0.012 -0.29137,0.0358 -0.09453,0.0239 -0.186457,0.0597 -0.27579,0.10752 -0.0644,0.0332 -0.118932,0.0753 -0.163598,0.12615 -0.04466,0.0509 -0.07946,0.11064 -0.104392,0.17924 -0.02493,0.0665 -0.04363,0.16828 -0.0561,0.3054 -0.01247,0.13711 -0.0187,0.30954 -0.0187,0.51728 l 3.5e-5,1.20905 z"
       style="font-style:normal;font-variant:normal;font-weight:400;font-size:8.46666622px;line-height:125%;font-family:'Times New Roman';text-align:start;letter-spacing:0px;word-spacing:0px;text-anchor:start;fill:#000000;fill-opacity:1;stroke:none;stroke-width:0.39887121"
       id="path241" />
  </g>
</svg>
