<?xml version="1.0" encoding="UTF-8" standalone="no"?>
<svg
   xmlns:dc="http://purl.org/dc/elements/1.1/"
   xmlns:cc="http://creativecommons.org/ns#"
   xmlns:rdf="http://www.w3.org/1999/02/22-rdf-syntax-ns#"
   xmlns:svg="http://www.w3.org/2000/svg"
   xmlns="http://www.w3.org/2000/svg"
   id="svg8"
   version="1.1"
   viewBox="0 0 105 148"
   height="148mm"
   width="105mm">
  <defs
     id="defs2">
    <clipPath
       clipPathUnits="userSpaceOnUse"
       id="clipEmfPath1">
      <path
         d="M 0,-0.79951545 H 623.62205 V 109.53362 H 0 Z"
         id="path10" />
    </clipPath>
    <pattern
       id="EMFhbasepattern"
       patternUnits="userSpaceOnUse"
       width="6"
       height="6"
       x="0"
       y="0" />
  </defs>
  <metadata
     id="metadata5">
    <rdf:RDF>
      <cc:Work
         rdf:about="">
        <dc:format>image/svg+xml</dc:format>
        <dc:type
           rdf:resource="http://purl.org/dc/dcmitype/StillImage" />
        <dc:title></dc:title>
      </cc:Work>
    </rdf:RDF>
  </metadata>
  <g
     transform="translate(0,-149)"
     id="layer1">
    <path
       d="m 84.750341,206.08294 v 0.1153 0.11529 h -1.8105 -1.8105 v -0.11529 -0.1153 h 0.14958 0.14958 c 0.174507,0 0.325122,-0.0255 0.451845,-0.0764 0.126723,-0.0509 0.229555,-0.12724 0.308495,-0.22904 0.04985,-0.0665 0.08724,-0.1797 0.112163,-0.33966 0.02492,-0.15996 0.03739,-0.36666 0.03739,-0.62011 v -2.72978 -2.72978 c 0,-0.21398 -0.0067,-0.3916 -0.02025,-0.53286 -0.0135,-0.14127 -0.03375,-0.24618 -0.06075,-0.31474 -0.02077,-0.0519 -0.05244,-0.10024 -0.09503,-0.1449 -0.04259,-0.0447 -0.09609,-0.0857 -0.160498,-0.12309 -0.09141,-0.0498 -0.184897,-0.0872 -0.28046,-0.11215 -0.09556,-0.0249 -0.193203,-0.0374 -0.29292,-0.0374 h -0.14958 -0.14958 v -0.1153 -0.1153 h 1.8105 1.8105 v 0.1153 0.1153 h -0.15269 -0.15269 c -0.17243,0 -0.321487,0.0255 -0.447172,0.0764 -0.125685,0.0509 -0.227998,0.12724 -0.306938,0.22903 -0.05194,0.0665 -0.0909,0.1797 -0.116865,0.33966 -0.02597,0.15996 -0.03896,0.36667 -0.03896,0.62012 v 2.72978 2.72978 c 0,0.21397 0.0067,0.39159 0.02025,0.53286 0.0135,0.14127 0.03375,0.24618 0.06075,0.31474 0.02077,0.0519 0.05296,0.10023 0.09659,0.1449 0.04363,0.0447 0.09868,0.0857 0.165162,0.12308 0.08933,0.0498 0.181262,0.0872 0.275785,0.11216 0.09452,0.0249 0.191642,0.0374 0.291355,0.0374 h 0.15272 z"
       style="font-style:normal;font-variant:normal;font-weight:400;font-size:8.46666622px;line-height:125%;font-family:'Times New Roman';text-align:start;letter-spacing:0px;word-spacing:0px;text-anchor:start;fill:#000000;fill-opacity:1;stroke:none;stroke-width:0.39887121"
       id="path243" />
  </g>
</svg>
