<?xml version="1.0" encoding="UTF-8" standalone="no"?>
<svg
   xmlns:dc="http://purl.org/dc/elements/1.1/"
   xmlns:cc="http://creativecommons.org/ns#"
   xmlns:rdf="http://www.w3.org/1999/02/22-rdf-syntax-ns#"
   xmlns:svg="http://www.w3.org/2000/svg"
   xmlns="http://www.w3.org/2000/svg"
   id="svg8"
   version="1.1"
   viewBox="0 0 105 148"
   height="148mm"
   width="105mm">
  <defs
     id="defs2">
    <clipPath
       clipPathUnits="userSpaceOnUse"
       id="clipEmfPath1">
      <path
         d="M 0,-0.79951545 H 623.62205 V 109.53362 H 0 Z"
         id="path10" />
    </clipPath>
    <pattern
       id="EMFhbasepattern"
       patternUnits="userSpaceOnUse"
       width="6"
       height="6"
       x="0"
       y="0" />
  </defs>
  <metadata
     id="metadata5">
    <rdf:RDF>
      <cc:Work
         rdf:about="">
        <dc:format>image/svg+xml</dc:format>
        <dc:type
           rdf:resource="http://purl.org/dc/dcmitype/StillImage" />
        <dc:title></dc:title>
      </cc:Work>
    </rdf:RDF>
  </metadata>
  <g
     transform="translate(0,-149)"
     id="layer1">
    <path
       d="m 11.484527,223.28086 v 0.1153 0.11529 H 9.6740218 7.8635166 v -0.11529 -0.1153 h 0.14958 0.14958 c 0.1745033,0 0.3251175,-0.0254 0.4518425,-0.0763 0.126725,-0.0509 0.2295608,-0.12724 0.3085075,-0.22904 0.04985,-0.0665 0.087238,-0.1797 0.1121625,-0.33966 0.024925,-0.15996 0.037387,-0.36666 0.037387,-0.62011 v -2.72978 -2.72978 c 0,-0.21398 -0.00676,-0.3916 -0.020275,-0.53286 -0.013517,-0.14127 -0.033792,-0.24618 -0.060825,-0.31474 -0.020767,-0.0519 -0.052444,-0.10024 -0.095033,-0.1449 -0.042588,-0.0447 -0.096087,-0.0857 -0.1604975,-0.12309 -0.091407,-0.0498 -0.18489,-0.0872 -0.28045,-0.11215 -0.09556,-0.0249 -0.1931967,-0.0374 -0.29291,-0.0374 h -0.14958 -0.14958 v -0.1153 -0.1153 h 1.8105002 1.8105002 v 0.1153 0.1153 h -0.15269 -0.15269 c -0.17243,0 -0.321488,0.0255 -0.447175,0.0763 -0.125687,0.0509 -0.228002,0.12724 -0.306945,0.22903 -0.05194,0.0665 -0.09089,0.1797 -0.116857,0.33966 -0.02597,0.15996 -0.03895,0.36667 -0.03895,0.62012 v 2.72978 2.72978 c 0,0.21397 0.0068,0.39159 0.02025,0.53286 0.0135,0.14127 0.03375,0.24618 0.06075,0.31474 0.02077,0.0519 0.05296,0.10023 0.09659,0.1449 0.04363,0.0447 0.09868,0.0857 0.165163,0.12308 0.08933,0.0498 0.181263,0.0872 0.27579,0.11216 0.09453,0.0249 0.19165,0.0374 0.29137,0.0374 l 0.15275,0 z m -0.41758,-10.96896 -0.91927,1.07508 -0.9192704,1.07509 h -0.10595 -0.10595 l 0.327195,-1.07509 0.327195,-1.07508 h 0.6980254 z"
       style="font-style:normal;font-variant:normal;font-weight:400;font-size:8.46666622px;line-height:125%;font-family:'Times New Roman';text-align:start;letter-spacing:0px;word-spacing:0px;text-anchor:start;fill:#000000;fill-opacity:1;stroke:none;stroke-width:0.39887121"
       id="path245" />
  </g>
</svg>
