<?xml version="1.0" encoding="UTF-8" standalone="no"?>
<svg
   xmlns:dc="http://purl.org/dc/elements/1.1/"
   xmlns:cc="http://creativecommons.org/ns#"
   xmlns:rdf="http://www.w3.org/1999/02/22-rdf-syntax-ns#"
   xmlns:svg="http://www.w3.org/2000/svg"
   xmlns="http://www.w3.org/2000/svg"
   id="svg8"
   version="1.1"
   viewBox="0 0 105 148"
   height="148mm"
   width="105mm">
  <defs
     id="defs2">
    <clipPath
       clipPathUnits="userSpaceOnUse"
       id="clipEmfPath1">
      <path
         d="M 0,-0.79951545 H 623.62205 V 109.53362 H 0 Z"
         id="path10" />
    </clipPath>
    <pattern
       id="EMFhbasepattern"
       patternUnits="userSpaceOnUse"
       width="6"
       height="6"
       x="0"
       y="0" />
  </defs>
  <metadata
     id="metadata5">
    <rdf:RDF>
      <cc:Work
         rdf:about="">
        <dc:format>image/svg+xml</dc:format>
        <dc:type
           rdf:resource="http://purl.org/dc/dcmitype/StillImage" />
        <dc:title></dc:title>
      </cc:Work>
    </rdf:RDF>
  </metadata>
  <g
     transform="translate(0,-149)"
     id="layer1">
    <path
       d="m 19.461936,215.29098 v -0.1153 -0.1153 h 1.8105 1.8105 v 0.1153 0.1153 h -0.15269 -0.15269 c -0.172427,0 -0.321483,0.0255 -0.44717,0.0764 -0.125687,0.0509 -0.228003,0.12724 -0.30695,0.22903 -0.04985,0.0665 -0.08724,0.1797 -0.112163,0.33966 -0.02492,0.15996 -0.03739,0.36667 -0.03739,0.62012 v 2.06603 2.06603 c 0,0.31785 -0.01766,0.60558 -0.05297,0.86318 -0.03532,0.2576 -0.08829,0.48508 -0.158925,0.68244 -0.06856,0.19736 -0.162563,0.38225 -0.282017,0.55468 -0.119455,0.17243 -0.26436,0.33239 -0.434713,0.47989 -0.170353,0.14542 -0.358363,0.25449 -0.56403,0.3272 -0.205667,0.0727 -0.42899,0.10907 -0.66997,0.10907 -0.195283,0 -0.369791,-0.0239 -0.523523,-0.0717 -0.153731,-0.0478 -0.286687,-0.11946 -0.398867,-0.21502 -0.112183,-0.0976 -0.196321,-0.20203 -0.252412,-0.31317 -0.05609,-0.11115 -0.08414,-0.22904 -0.08414,-0.35369 0,-0.1018 0.01298,-0.19113 0.03895,-0.26799 0.02597,-0.0769 0.06492,-0.14127 0.116858,-0.1932 0.06855,-0.0644 0.142821,-0.11271 0.222802,-0.14491 0.07998,-0.0322 0.165678,-0.0483 0.257088,-0.0483 0.06648,0 0.129323,0.0109 0.18853,0.0327 0.05921,0.0218 0.114777,0.0545 0.16671,0.0981 0.05402,0.0436 0.114784,0.12359 0.182302,0.23993 0.06752,0.11634 0.141788,0.26903 0.222808,0.45809 0.04779,0.11218 0.102327,0.19632 0.16361,0.25241 0.06128,0.0561 0.129313,0.0841 0.20409,0.0841 0.05609,0 0.110109,-0.0171 0.162047,-0.0514 0.05194,-0.0343 0.1018,-0.0857 0.149583,-0.15425 0.04985,-0.0685 0.08724,-0.16359 0.112162,-0.28512 0.02493,-0.12153 0.03739,-0.26955 0.03739,-0.44406 v -2.88558 -2.88559 c 0,-0.21398 -0.0068,-0.3916 -0.02028,-0.53286 -0.01352,-0.14127 -0.03379,-0.24618 -0.06082,-0.31474 -0.02077,-0.0519 -0.05296,-0.10024 -0.09659,-0.1449 -0.04363,-0.0447 -0.09868,-0.0857 -0.165163,-0.12309 -0.08933,-0.0498 -0.181263,-0.0872 -0.27579,-0.11215 -0.09453,-0.0249 -0.19165,-0.0374 -0.29137,-0.0374 l -0.15265,0 z"
       style="font-style:normal;font-variant:normal;font-weight:400;font-size:8.46666622px;line-height:125%;font-family:'Times New Roman';text-align:start;letter-spacing:0px;word-spacing:0px;text-anchor:start;fill:#000000;fill-opacity:1;stroke:none;stroke-width:0.39887121"
       id="path247" />
  </g>
</svg>
