<?xml version="1.0" encoding="UTF-8" standalone="no"?>
<svg
   xmlns:dc="http://purl.org/dc/elements/1.1/"
   xmlns:cc="http://creativecommons.org/ns#"
   xmlns:rdf="http://www.w3.org/1999/02/22-rdf-syntax-ns#"
   xmlns:svg="http://www.w3.org/2000/svg"
   xmlns="http://www.w3.org/2000/svg"
   id="svg8"
   version="1.1"
   viewBox="0 0 105 148"
   height="148mm"
   width="105mm">
  <defs
     id="defs2">
    <clipPath
       clipPathUnits="userSpaceOnUse"
       id="clipEmfPath1">
      <path
         d="M 0,-0.79951545 H 623.62205 V 109.53362 H 0 Z"
         id="path10" />
    </clipPath>
    <pattern
       id="EMFhbasepattern"
       patternUnits="userSpaceOnUse"
       width="6"
       height="6"
       x="0"
       y="0" />
  </defs>
  <metadata
     id="metadata5">
    <rdf:RDF>
      <cc:Work
         rdf:about="">
        <dc:format>image/svg+xml</dc:format>
        <dc:type
           rdf:resource="http://purl.org/dc/dcmitype/StillImage" />
        <dc:title></dc:title>
      </cc:Work>
    </rdf:RDF>
  </metadata>
  <g
     transform="translate(0,-149)"
     id="layer1">
    <path
       d="m 33.347646,218.82472 1.558085,1.54875 1.558085,1.54874 c 0.25553,0.25552 0.492362,0.47054 0.710495,0.64505 0.218133,0.1745 0.417568,0.3085 0.598305,0.40199 0.18074,0.0914 0.361479,0.16308 0.542217,0.21501 0.180739,0.0519 0.361476,0.0841 0.542213,0.0966 v 0.1153 0.11529 h -2.009935 -2.009935 v -0.11529 -0.1153 c 0.120493,0 0.223847,-0.01 0.31006,-0.0296 0.08621,-0.0197 0.155287,-0.0494 0.20722,-0.0889 0.05402,-0.0416 0.09453,-0.0852 0.121537,-0.13089 0.02701,-0.0457 0.04051,-0.0935 0.04051,-0.14333 0,-0.0498 -0.0052,-0.0971 -0.01557,-0.14177 -0.01038,-0.0447 -0.02596,-0.0867 -0.04673,-0.12621 -0.0187,-0.0395 -0.06025,-0.0961 -0.124655,-0.16987 -0.0644,-0.0737 -0.151658,-0.16463 -0.261765,-0.27264 l -1.458365,-1.44278 -1.458365,-1.44279 v 1.36177 1.36177 c 0,0.21398 0.0068,0.3916 0.02025,0.53287 0.0135,0.14126 0.03375,0.24617 0.06075,0.31473 0.02077,0.0519 0.05296,0.10024 0.09659,0.1449 0.04363,0.0447 0.09868,0.0857 0.16517,0.12308 0.08933,0.0498 0.181257,0.0872 0.275782,0.11216 0.09452,0.0249 0.191648,0.0374 0.291368,0.0374 h 0.143345 0.143345 v 0.1153 0.1153 h -1.801155 -1.801155 v -0.1153 -0.1153 h 0.14958 0.14958 c 0.174503,0 0.325117,-0.0255 0.45184,-0.0763 0.126723,-0.0509 0.229557,-0.12725 0.3085,-0.22904 0.04985,-0.0665 0.08724,-0.1797 0.112162,-0.33966 0.02492,-0.15996 0.03739,-0.36667 0.03739,-0.62012 v -2.72978 -2.72978 c 0,-0.21398 -0.0068,-0.39212 -0.02027,-0.53442 -0.01352,-0.14231 -0.03379,-0.24878 -0.06083,-0.31941 -0.02077,-0.0498 -0.05244,-0.0966 -0.09503,-0.14021 -0.04259,-0.0436 -0.09608,-0.0841 -0.16049,-0.12154 -0.09141,-0.0498 -0.184902,-0.0872 -0.280465,-0.11216 -0.09556,-0.0249 -0.193202,-0.0374 -0.292915,-0.0374 h -0.149575 -0.149575 v -0.11529 -0.1153 h 1.80115 1.80115 v 0.1153 0.11529 h -0.143345 -0.143345 c -0.09764,0 -0.193728,0.012 -0.288253,0.0358 -0.09452,0.0239 -0.18749,0.0597 -0.278897,0.10753 -0.0644,0.0332 -0.118927,0.0747 -0.16359,0.12459 -0.04466,0.0499 -0.07946,0.10805 -0.10439,0.17457 -0.02493,0.0665 -0.04363,0.16827 -0.0561,0.30538 -0.01247,0.13711 -0.0187,0.30954 -0.0187,0.51728 v 1.29322 1.29322 c 0.04156,-0.0395 0.133492,-0.12521 0.275797,-0.25713 0.142305,-0.13192 0.334983,-0.31004 0.578033,-0.53438 0.617003,-0.56507 1.111957,-1.03613 1.484862,-1.41319 0.372905,-0.37706 0.623761,-0.66012 0.752568,-0.84917 0.05609,-0.0831 0.09816,-0.16099 0.126202,-0.2337 0.02804,-0.0727 0.04207,-0.14023 0.04207,-0.20255 0,-0.0478 -0.01091,-0.0925 -0.03272,-0.13401 -0.02181,-0.0416 -0.05452,-0.08 -0.09815,-0.11529 -0.04362,-0.0374 -0.102299,-0.0654 -0.176048,-0.0841 -0.07375,-0.0187 -0.162562,-0.028 -0.266442,-0.028 h -0.0966 -0.09661 v -0.1153 -0.1153 h 1.55186 1.55186 v 0.1153 0.1153 c -0.09141,0.002 -0.178659,0.009 -0.261758,0.0217 -0.0831,0.0125 -0.162042,0.0302 -0.236832,0.0531 -0.07479,0.0229 -0.157889,0.0566 -0.249298,0.1013 -0.09141,0.0447 -0.191125,0.10022 -0.299152,0.16668 -0.108023,0.0644 -0.228513,0.14906 -0.36147,0.25398 -0.132957,0.10491 -0.27838,0.23008 -0.43627,0.3755 -0.04568,0.0416 -0.17395,0.1688 -0.38481,0.38174 -0.21086,0.21294 -0.50431,0.51157 -0.88035,0.89589 l -0.645015,0.64194 z"
       style="font-style:normal;font-variant:normal;font-weight:400;font-size:8.46666622px;line-height:125%;font-family:'Times New Roman';text-align:start;letter-spacing:0px;word-spacing:0px;text-anchor:start;fill:#000000;fill-opacity:1;stroke:none;stroke-width:0.39887121"
       id="path249" />
  </g>
</svg>
