<?xml version="1.0" encoding="UTF-8" standalone="no"?>
<svg
   xmlns:dc="http://purl.org/dc/elements/1.1/"
   xmlns:cc="http://creativecommons.org/ns#"
   xmlns:rdf="http://www.w3.org/1999/02/22-rdf-syntax-ns#"
   xmlns:svg="http://www.w3.org/2000/svg"
   xmlns="http://www.w3.org/2000/svg"
   id="svg8"
   version="1.1"
   viewBox="0 0 105 148"
   height="148mm"
   width="105mm">
  <defs
     id="defs2">
    <clipPath
       clipPathUnits="userSpaceOnUse"
       id="clipEmfPath1">
      <path
         d="M 0,-0.79951545 H 623.62205 V 109.53362 H 0 Z"
         id="path10" />
    </clipPath>
    <pattern
       id="EMFhbasepattern"
       patternUnits="userSpaceOnUse"
       width="6"
       height="6"
       x="0"
       y="0" />
  </defs>
  <metadata
     id="metadata5">
    <rdf:RDF>
      <cc:Work
         rdf:about="">
        <dc:format>image/svg+xml</dc:format>
        <dc:type
           rdf:resource="http://purl.org/dc/dcmitype/StillImage" />
        <dc:title></dc:title>
      </cc:Work>
    </rdf:RDF>
  </metadata>
  <g
     transform="translate(0,-149)"
     id="layer1">
    <path
       d="m 70.068726,223.51145 h -2.009945 -2.009945 v -0.11529 -0.1153 c 0.226443,0 0.396276,-0.0327 0.509498,-0.0982 0.113221,-0.0654 0.169832,-0.1636 0.169832,-0.29448 0,-0.0893 -0.03739,-0.1932 -0.11218,-0.31161 -0.07479,-0.11842 -0.186967,-0.25138 -0.33654,-0.39888 l -1.458375,-1.42097 -1.458375,-1.42098 v 1.33996 1.33996 c 0,0.21397 0.0068,0.39159 0.02025,0.53286 0.0135,0.14127 0.03375,0.24618 0.06075,0.31474 0.05609,0.13919 0.153215,0.24358 0.291365,0.31317 0.13815,0.0696 0.317328,0.10439 0.537535,0.10439 h 0.143345 0.143345 v 0.1153 0.11529 h -1.801155 -1.801155 v -0.11529 -0.1153 h 0.14958 0.14958 c 0.17451,0 0.325127,-0.0254 0.451852,-0.0763 0.126725,-0.0509 0.229558,-0.12724 0.308498,-0.22904 0.04985,-0.0644 0.08724,-0.17658 0.112162,-0.33654 0.02493,-0.15996 0.03739,-0.36771 0.03739,-0.62323 v -1.33996 -1.33996 h -0.604545 -0.604545 v -0.25553 -0.25553 h 0.604545 0.604545 v -1.13429 -1.13429 c 0,-0.21605 -0.0067,-0.39523 -0.02025,-0.53754 -0.0135,-0.1423 -0.03375,-0.24773 -0.06075,-0.31629 -0.02077,-0.0499 -0.05244,-0.0966 -0.09503,-0.14021 -0.04259,-0.0436 -0.09609,-0.0841 -0.160497,-0.12155 -0.08933,-0.0498 -0.181777,-0.0872 -0.27734,-0.11215 -0.09556,-0.0249 -0.194243,-0.0374 -0.29604,-0.0374 h -0.149575 -0.149575 v -0.1153 -0.1153 h 1.80115 1.80115 v 0.1153 0.1153 h -0.143345 -0.143345 c -0.09764,0 -0.193198,0.0114 -0.286683,0.0343 -0.09349,0.0228 -0.184894,0.0571 -0.274227,0.10277 -0.08725,0.0457 -0.157882,0.11059 -0.211895,0.19473 -0.05401,0.0841 -0.09141,0.1875 -0.112185,0.31009 -0.0083,0.0457 -0.01452,0.12045 -0.01868,0.22432 -0.0042,0.10387 -0.0062,0.23684 -0.0062,0.39891 v 1.1343 1.13429 h 0.171395 0.171395 l 0.255525,-0.23683 0.255525,-0.23683 c 0.62116,-0.56922 1.118191,-1.04236 1.491092,-1.41942 0.372902,-0.37706 0.621675,-0.65804 0.746318,-0.84294 0.05609,-0.0831 0.09816,-0.16099 0.126202,-0.2337 0.02805,-0.0727 0.04207,-0.14023 0.04207,-0.20255 0,-0.12049 -0.04778,-0.21086 -0.143345,-0.27111 -0.09556,-0.0602 -0.238908,-0.0904 -0.430035,-0.0904 h -0.09659 -0.0966 v -0.11529 -0.1153 h 1.55186 1.55186 v 0.1153 0.11529 c -0.170353,0.004 -0.342784,0.0341 -0.517292,0.0902 -0.174509,0.0561 -0.351095,0.13821 -0.529758,0.24636 -0.10387,0.0623 -0.222283,0.14646 -0.355237,0.25241 -0.132956,0.10595 -0.280453,0.23371 -0.442493,0.38329 -0.0831,0.0872 -0.230087,0.23734 -0.44095,0.45028 -0.210863,0.21294 -0.485607,0.48872 -0.82423,0.82735 l -0.64505,0.64194 -0.64505,0.64193 h 2.20003 2.20003 v 0.25553 0.25552 h -1.9445 -1.9445 l 1.302565,1.29322 1.302565,1.29322 c 0.430033,0.42795 0.844486,0.75515 1.243358,0.98159 0.398871,0.22644 0.782162,0.35212 1.149872,0.37705 v 0.11532 z"
       style="font-style:normal;font-variant:normal;font-weight:400;font-size:8.46666622px;line-height:125%;font-family:'Times New Roman';text-align:start;letter-spacing:0px;word-spacing:0px;text-anchor:start;fill:#000000;fill-opacity:1;stroke:none;stroke-width:0.39887121"
       id="path253" />
  </g>
</svg>
