<?xml version="1.0" encoding="UTF-8" standalone="no"?>
<svg
   xmlns:dc="http://purl.org/dc/elements/1.1/"
   xmlns:cc="http://creativecommons.org/ns#"
   xmlns:rdf="http://www.w3.org/1999/02/22-rdf-syntax-ns#"
   xmlns:svg="http://www.w3.org/2000/svg"
   xmlns="http://www.w3.org/2000/svg"
   id="svg8"
   version="1.1"
   viewBox="0 0 105 148"
   height="148mm"
   width="105mm">
  <defs
     id="defs2">
    <clipPath
       clipPathUnits="userSpaceOnUse"
       id="clipEmfPath1">
      <path
         d="M 0,-0.79951545 H 623.62205 V 109.53362 H 0 Z"
         id="path10" />
    </clipPath>
    <pattern
       id="EMFhbasepattern"
       patternUnits="userSpaceOnUse"
       width="6"
       height="6"
       x="0"
       y="0" />
  </defs>
  <metadata
     id="metadata5">
    <rdf:RDF>
      <cc:Work
         rdf:about="">
        <dc:format>image/svg+xml</dc:format>
        <dc:type
           rdf:resource="http://purl.org/dc/dcmitype/StillImage" />
        <dc:title></dc:title>
      </cc:Work>
    </rdf:RDF>
  </metadata>
  <g
     transform="translate(0,-149)"
     id="layer1">
    <path
       d="m 48.953476,218.82472 1.558095,1.54875 1.558095,1.54874 c 0.255523,0.25552 0.492351,0.47054 0.710483,0.64505 0.218131,0.1745 0.417567,0.3085 0.598307,0.40199 0.18074,0.0914 0.361479,0.16308 0.542218,0.21501 0.180738,0.0519 0.361475,0.0841 0.542212,0.0966 v 0.1153 0.11529 h -2.00994 -2.00994 v -0.11529 -0.1153 c 0.120493,0 0.223847,-0.01 0.31006,-0.0296 0.08621,-0.0197 0.155287,-0.0494 0.20722,-0.0889 0.05402,-0.0416 0.09453,-0.0852 0.121538,-0.13089 0.02701,-0.0457 0.04051,-0.0935 0.04051,-0.14333 0,-0.0498 -0.0052,-0.0971 -0.01557,-0.14177 -0.01038,-0.0447 -0.02596,-0.0867 -0.04673,-0.12621 -0.0187,-0.0395 -0.06025,-0.0961 -0.124652,-0.16987 -0.0644,-0.0737 -0.151655,-0.16463 -0.261758,-0.27264 l -1.45837,-1.44278 -1.45837,-1.44279 v 1.36177 1.36177 c 0,0.21398 0.0067,0.3916 0.02025,0.53287 0.0135,0.14126 0.03375,0.24617 0.06075,0.31473 0.02077,0.0519 0.05296,0.10024 0.09659,0.1449 0.04363,0.0447 0.09869,0.0857 0.165177,0.12308 0.08933,0.0498 0.181252,0.0872 0.275775,0.11216 0.09452,0.0249 0.191645,0.0374 0.291365,0.0374 h 0.143345 0.143345 v 0.1153 0.1153 h -1.801155 -1.801155 v -0.1153 -0.1153 h 0.14958 0.14958 c 0.174503,0 0.325118,-0.0255 0.451843,-0.0763 0.126725,-0.0509 0.22956,-0.12725 0.308507,-0.22904 0.04985,-0.0665 0.08723,-0.1797 0.112155,-0.33966 0.02492,-0.15996 0.03739,-0.36667 0.03739,-0.62012 v -2.72978 -2.72978 c 0,-0.21398 -0.0067,-0.39212 -0.02025,-0.53442 -0.0135,-0.14231 -0.03375,-0.24878 -0.06075,-0.31941 -0.02077,-0.0498 -0.05244,-0.0966 -0.09503,-0.14021 -0.04259,-0.0436 -0.09609,-0.0841 -0.160498,-0.12154 -0.09141,-0.0498 -0.184892,-0.0872 -0.280455,-0.11216 -0.09556,-0.0249 -0.193205,-0.0374 -0.292925,-0.0374 h -0.14958 -0.14958 v -0.11529 -0.1153 h 1.801155 1.801155 v 0.1153 0.11529 h -0.143345 -0.143345 c -0.09764,0 -0.193717,0.012 -0.28824,0.0358 -0.09452,0.0239 -0.18749,0.0597 -0.2789,0.10753 -0.0644,0.0332 -0.118932,0.0747 -0.163597,0.12459 -0.04467,0.0499 -0.07946,0.10805 -0.104393,0.17457 -0.02493,0.0665 -0.04363,0.16827 -0.0561,0.30538 -0.01247,0.13711 -0.0187,0.30954 -0.0187,0.51728 v 1.29322 1.29322 c 0.04156,-0.0395 0.133493,-0.12521 0.275798,-0.25713 0.142305,-0.13192 0.334982,-0.31004 0.578032,-0.53438 0.617007,-0.56507 1.111962,-1.03613 1.484865,-1.41319 0.372903,-0.37706 0.623755,-0.66012 0.752555,-0.84917 0.05609,-0.0831 0.09816,-0.16099 0.12621,-0.2337 0.02805,-0.0727 0.04207,-0.14023 0.04207,-0.20255 0,-0.0478 -0.01091,-0.0925 -0.03272,-0.13401 -0.02181,-0.0416 -0.05452,-0.08 -0.09814,-0.11529 -0.04362,-0.0374 -0.102299,-0.0654 -0.176047,-0.0841 -0.07375,-0.0187 -0.162563,-0.028 -0.266443,-0.028 h -0.0966 -0.0966 v -0.1153 -0.1153 h 1.551855 1.551855 v 0.1153 0.1153 c -0.09141,0.002 -0.178658,0.009 -0.261755,0.0217 -0.0831,0.0125 -0.162038,0.0302 -0.236825,0.0531 -0.07479,0.0229 -0.15789,0.0566 -0.2493,0.1013 -0.09141,0.0447 -0.19113,0.10022 -0.29916,0.16668 -0.108023,0.0644 -0.228512,0.14906 -0.361467,0.25398 -0.132955,0.10491 -0.278376,0.23008 -0.436263,0.3755 -0.04568,0.0416 -0.173952,0.1688 -0.384815,0.38174 -0.210863,0.21294 -0.504318,0.51157 -0.880365,0.89589 l -0.645055,0.64194 z m 2.47424,6.41934 h -1.98812 -1.98812 v -0.39887 -0.39888 h 1.98812 1.98812 v 0.39888 z"
       style="font-style:normal;font-variant:normal;font-weight:400;font-size:8.46666622px;line-height:125%;font-family:'Times New Roman';text-align:start;letter-spacing:0px;word-spacing:0px;text-anchor:start;fill:#000000;fill-opacity:1;stroke:none;stroke-width:0.39887121"
       id="path251" />
  </g>
</svg>
