<?xml version="1.0" encoding="UTF-8" standalone="no"?>
<svg
   xmlns:dc="http://purl.org/dc/elements/1.1/"
   xmlns:cc="http://creativecommons.org/ns#"
   xmlns:rdf="http://www.w3.org/1999/02/22-rdf-syntax-ns#"
   xmlns:svg="http://www.w3.org/2000/svg"
   xmlns="http://www.w3.org/2000/svg"
   id="svg8"
   version="1.1"
   viewBox="0 0 105 148"
   height="148mm"
   width="105mm">
  <defs
     id="defs2">
    <clipPath
       clipPathUnits="userSpaceOnUse"
       id="clipEmfPath1">
      <path
         d="M 0,-0.79951545 H 623.62205 V 109.53362 H 0 Z"
         id="path10" />
    </clipPath>
    <pattern
       id="EMFhbasepattern"
       patternUnits="userSpaceOnUse"
       width="6"
       height="6"
       x="0"
       y="0" />
    <pattern
       id="EMFhbasepattern-9"
       patternUnits="userSpaceOnUse"
       width="6"
       height="6"
       x="0"
       y="0" />
  </defs>
  <metadata
     id="metadata5">
    <rdf:RDF>
      <cc:Work
         rdf:about="">
        <dc:format>image/svg+xml</dc:format>
        <dc:type
           rdf:resource="http://purl.org/dc/dcmitype/StillImage" />
        <dc:title></dc:title>
      </cc:Work>
    </rdf:RDF>
  </metadata>
  <g
     transform="translate(0,-149)"
     id="layer1">
    <path
       d="m 10.038941,231.40704 0.102183,0.0217 0.102183,0.0217 -0.3591892,1.1395 -0.3591892,1.13949 h -3.251277 -3.251277 v -0.11457 -0.11456 h 0.1579195 0.1579195 c 0.17753,0 0.3297722,-0.0289 0.4567267,-0.0867 0.1269545,-0.0578 0.2286213,-0.14451 0.3050003,-0.26011 0.04335,-0.0661 0.075863,-0.17546 0.097538,-0.32822 0.021675,-0.15276 0.032513,-0.34887 0.032513,-0.58833 v -2.7094 -2.70939 c 0,-0.26217 -0.01445,-0.47531 -0.04335,-0.63942 -0.0289,-0.16411 -0.07225,-0.2792 -0.1300507,-0.34526 -0.080508,-0.0908 -0.1806268,-0.15895 -0.3003563,-0.20436 -0.1197295,-0.0454 -0.2590697,-0.0681 -0.4180207,-0.0681 H 3.1802941 3.0223746 v -0.11457 -0.11457 h 1.901223 1.901223 v 0.11457 0.11457 c -0.2229447,-0.002 -0.4128605,0.007 -0.5697475,0.028 -0.156887,0.0206 -0.2807452,0.0526 -0.3715745,0.0959 -0.088765,0.0434 -0.163596,0.0924 -0.224493,0.14709 -0.060897,0.0547 -0.10786,0.11508 -0.140889,0.18114 -0.03303,0.0661 -0.057803,0.17804 -0.074318,0.33596 -0.016515,0.15792 -0.024773,0.36177 -0.024773,0.61155 v 2.63818 2.63818 c 0,0.17134 0.00826,0.31584 0.024773,0.4335 0.016515,0.11767 0.041288,0.2085 0.074318,0.27249 0.024773,0.0434 0.056255,0.081 0.094444,0.11302 0.03819,0.032 0.083088,0.0583 0.1346935,0.079 0.051608,0.0206 0.1579193,0.0361 0.318935,0.0464 0.1610157,0.0103 0.3767353,0.0155 0.647159,0.0155 h 0.306549 0.306549 c 0.322031,0 0.5960671,-0.0119 0.8221083,-0.0356 0.2260411,-0.0237 0.4040874,-0.0593 0.5341387,-0.10682 0.130051,-0.0475 0.2544252,-0.11302 0.3731225,-0.19663 0.1186973,-0.0836 0.2317178,-0.18527 0.3390615,-0.305 0.1073437,-0.12179 0.2146875,-0.27816 0.3220313,-0.46911 0.107344,-0.19095 0.214688,-0.41648 0.3220321,-0.67658 v -1e-5 z"
       style="font-style:normal;font-variant:normal;font-weight:400;font-size:12.68307686px;line-height:114.93034363%;font-family:'Times New Roman';text-align:start;letter-spacing:0px;word-spacing:0px;text-anchor:start;fill:#000000;fill-opacity:1;stroke:none;stroke-width:0.39634615"
       id="path560" />
  </g>
</svg>
