<?xml version="1.0" encoding="UTF-8" standalone="no"?>
<svg
   xmlns:dc="http://purl.org/dc/elements/1.1/"
   xmlns:cc="http://creativecommons.org/ns#"
   xmlns:rdf="http://www.w3.org/1999/02/22-rdf-syntax-ns#"
   xmlns:svg="http://www.w3.org/2000/svg"
   xmlns="http://www.w3.org/2000/svg"
   id="svg8"
   version="1.1"
   viewBox="0 0 105 148"
   height="148mm"
   width="105mm">
  <defs
     id="defs2">
    <clipPath
       clipPathUnits="userSpaceOnUse"
       id="clipEmfPath1">
      <path
         d="M 0,-0.79951545 H 623.62205 V 109.53362 H 0 Z"
         id="path10" />
    </clipPath>
    <pattern
       id="EMFhbasepattern"
       patternUnits="userSpaceOnUse"
       width="6"
       height="6"
       x="0"
       y="0" />
    <pattern
       id="EMFhbasepattern-9"
       patternUnits="userSpaceOnUse"
       width="6"
       height="6"
       x="0"
       y="0" />
  </defs>
  <metadata
     id="metadata5">
    <rdf:RDF>
      <cc:Work
         rdf:about="">
        <dc:format>image/svg+xml</dc:format>
        <dc:type
           rdf:resource="http://purl.org/dc/dcmitype/StillImage" />
        <dc:title></dc:title>
      </cc:Work>
    </rdf:RDF>
  </metadata>
  <g
     transform="translate(0,-149)"
     id="layer1">
    <path
       d="m 42.345679,237.20388 -1.622542,-3.53305 -1.622542,-3.53306 v 2.80539 2.80539 c 0,0.25804 0.01393,0.46756 0.0418,0.62858 0.02787,0.16101 0.06967,0.27352 0.125407,0.33751 0.07638,0.0867 0.174949,0.15173 0.295711,0.19508 0.120762,0.0434 0.263715,0.065 0.428859,0.065 h 0.148629 0.14863 v 0.11457 0.11456 h -1.461526 -1.461526 v -0.11456 -0.11457 h 0.148629 0.14863 c 0.17753,0 0.329256,-0.0268 0.455179,-0.0805 0.125922,-0.0537 0.226041,-0.13418 0.300356,-0.24153 0.04541,-0.0661 0.07948,-0.17443 0.102183,-0.32512 0.02271,-0.1507 0.03406,-0.34371 0.03406,-0.57904 v -2.74346 -2.74346 c 0,-0.18579 -0.01032,-0.34577 -0.03097,-0.47995 -0.02064,-0.13418 -0.05161,-0.24256 -0.09289,-0.32513 -0.0289,-0.0599 -0.07019,-0.11457 -0.123858,-0.16411 -0.05367,-0.0495 -0.119729,-0.0939 -0.198173,-0.13315 -0.07638,-0.0413 -0.176498,-0.0722 -0.300356,-0.0929 -0.123858,-0.0206 -0.271456,-0.031 -0.442793,-0.031 v -0.11457 -0.11457 h 1.189038 1.189039 l 1.523455,3.28534 1.523456,3.28534 1.498683,-3.28534 1.498684,-3.28534 h 1.189038 1.189039 v 0.11457 0.11457 H 48.02148 47.875947 c -0.179595,0 -0.332869,0.0268 -0.459824,0.0805 -0.126955,0.0537 -0.227589,0.13418 -0.301904,0.24152 -0.04541,0.0661 -0.07948,0.17443 -0.102183,0.32513 -0.02271,0.15069 -0.03406,0.3437 -0.03406,0.57903 v 2.74346 2.74346 c 0,0.25804 0.01445,0.46756 0.04335,0.62858 0.0289,0.16101 0.07225,0.27352 0.130051,0.33751 0.07638,0.0867 0.17495,0.15173 0.295712,0.19508 0.120762,0.0434 0.263715,0.065 0.428859,0.065 h 0.145533 0.145533 v 0.11457 0.11456 h -1.783558 -1.783557 v -0.11456 -0.11457 h 0.14863 0.14863 c 0.179594,0 0.332353,-0.0268 0.458275,-0.0805 0.125922,-0.0537 0.225009,-0.13418 0.297259,-0.24153 0.04541,-0.0661 0.07948,-0.17443 0.102183,-0.32512 0.02271,-0.1507 0.03406,-0.34371 0.03406,-0.57904 v -2.80539 -2.80539 l -1.619446,3.53306 -1.619445,3.53305 -0.102183,0 z"
       style="font-style:normal;font-variant:normal;font-weight:400;font-size:12.68307686px;line-height:114.93034363%;font-family:'Times New Roman';text-align:start;letter-spacing:0px;word-spacing:0px;text-anchor:start;fill:#000000;fill-opacity:1;stroke:none;stroke-width:0.39634615"
       id="path564" />
  </g>
</svg>
