<?xml version="1.0" encoding="UTF-8" standalone="no"?>
<svg
   xmlns:dc="http://purl.org/dc/elements/1.1/"
   xmlns:cc="http://creativecommons.org/ns#"
   xmlns:rdf="http://www.w3.org/1999/02/22-rdf-syntax-ns#"
   xmlns:svg="http://www.w3.org/2000/svg"
   xmlns="http://www.w3.org/2000/svg"
   id="svg8"
   version="1.1"
   viewBox="0 0 105 148"
   height="148mm"
   width="105mm">
  <defs
     id="defs2">
    <clipPath
       clipPathUnits="userSpaceOnUse"
       id="clipEmfPath1">
      <path
         d="M 0,-0.79951545 H 623.62205 V 109.53362 H 0 Z"
         id="path10" />
    </clipPath>
    <pattern
       id="EMFhbasepattern"
       patternUnits="userSpaceOnUse"
       width="6"
       height="6"
       x="0"
       y="0" />
    <pattern
       id="EMFhbasepattern-9"
       patternUnits="userSpaceOnUse"
       width="6"
       height="6"
       x="0"
       y="0" />
  </defs>
  <metadata
     id="metadata5">
    <rdf:RDF>
      <cc:Work
         rdf:about="">
        <dc:format>image/svg+xml</dc:format>
        <dc:type
           rdf:resource="http://purl.org/dc/dcmitype/StillImage" />
        <dc:title></dc:title>
      </cc:Work>
    </rdf:RDF>
  </metadata>
  <g
     transform="translate(0,-149)"
     id="layer1">
    <path
       d="m 64.143376,229.07357 h 1.139495 1.139495 l 2.56696,3.14909 2.566961,3.1491 v -2.42143 -2.42143 c 0,-0.25804 -0.01445,-0.46756 -0.04335,-0.62858 -0.0289,-0.16101 -0.07225,-0.27352 -0.130051,-0.33751 -0.07638,-0.0867 -0.17495,-0.15172 -0.295711,-0.19507 -0.120762,-0.0434 -0.263715,-0.065 -0.428859,-0.065 h -0.145533 -0.145534 v -0.11457 -0.11457 h 1.461527 1.461526 v 0.11457 0.11457 h -0.14863 -0.14863 c -0.17753,0 -0.329256,0.0268 -0.455179,0.0805 -0.125922,0.0537 -0.226041,0.13418 -0.300356,0.24152 -0.04541,0.0661 -0.07948,0.17443 -0.102183,0.32512 -0.02271,0.1507 -0.03406,0.34371 -0.03406,0.57904 v 3.53925 3.53925 h -0.111472 -0.111472 l -2.76823,-3.38133 -2.768231,-3.38133 v 2.58554 2.58554 c 0,0.25804 0.01393,0.46756 0.0418,0.62858 0.02787,0.16101 0.06967,0.27352 0.125407,0.33751 0.07844,0.0867 0.178046,0.15173 0.298808,0.19508 0.120762,0.0434 0.262682,0.065 0.425762,0.065 h 0.14863 0.14863 v 0.11456 0.11457 h -1.461526 -1.461527 v -0.11457 -0.11456 h 0.145533 0.145534 c 0.179594,0 0.332869,-0.0268 0.459823,-0.0805 0.126955,-0.0537 0.22759,-0.13418 0.301905,-0.24153 0.04541,-0.0661 0.07948,-0.17443 0.102183,-0.32513 0.02271,-0.15069 0.03406,-0.3437 0.03406,-0.57903 v -2.91996 -2.91995 c -0.121794,-0.14244 -0.229138,-0.26062 -0.322031,-0.35454 -0.09289,-0.0939 -0.171338,-0.1636 -0.235331,-0.20902 -0.06193,-0.0454 -0.138825,-0.0893 -0.230686,-0.1316 -0.09186,-0.0423 -0.198689,-0.0831 -0.320483,-0.12231 -0.05986,-0.0186 -0.135212,-0.0325 -0.226041,-0.0418 -0.09083,-0.009 -0.197141,-0.0139 -0.318935,-0.0139 v -0.11458 z m 6.781235,10.11921 h -1.975538 -1.975538 v -0.39634 -0.39635 h 1.975538 1.975538 v 0.39635 z"
       style="font-style:normal;font-variant:normal;font-weight:400;font-size:12.68307686px;line-height:114.93034363%;font-family:'Times New Roman';text-align:start;letter-spacing:0px;word-spacing:0px;text-anchor:start;fill:#000000;fill-opacity:1;stroke:none;stroke-width:0.39634615"
       id="path568" />
  </g>
</svg>
