<?xml version="1.0" encoding="UTF-8" standalone="no"?>
<svg
   xmlns:dc="http://purl.org/dc/elements/1.1/"
   xmlns:cc="http://creativecommons.org/ns#"
   xmlns:rdf="http://www.w3.org/1999/02/22-rdf-syntax-ns#"
   xmlns:svg="http://www.w3.org/2000/svg"
   xmlns="http://www.w3.org/2000/svg"
   id="svg8"
   version="1.1"
   viewBox="0 0 105 148"
   height="148mm"
   width="105mm">
  <defs
     id="defs2">
    <clipPath
       clipPathUnits="userSpaceOnUse"
       id="clipEmfPath1">
      <path
         d="M 0,-0.79951545 H 623.62205 V 109.53362 H 0 Z"
         id="path10" />
    </clipPath>
    <pattern
       id="EMFhbasepattern"
       patternUnits="userSpaceOnUse"
       width="6"
       height="6"
       x="0"
       y="0" />
    <pattern
       id="EMFhbasepattern-9"
       patternUnits="userSpaceOnUse"
       width="6"
       height="6"
       x="0"
       y="0" />
  </defs>
  <metadata
     id="metadata5">
    <rdf:RDF>
      <cc:Work
         rdf:about="">
        <dc:format>image/svg+xml</dc:format>
        <dc:type
           rdf:resource="http://purl.org/dc/dcmitype/StillImage" />
        <dc:title></dc:title>
      </cc:Work>
    </rdf:RDF>
  </metadata>
  <g
     transform="translate(0,-149)"
     id="layer1">
    <path
       d="m 83.387033,230.21794 c 0.272488,0 0.535816,0.0259 0.789983,0.0778 0.254167,0.0519 0.499174,0.12966 0.735021,0.23339 0.235846,0.10373 0.462533,0.2334 0.680058,0.38899 0.217526,0.1556 0.425892,0.33713 0.625097,0.54459 0.200238,0.20643 0.375445,0.42576 0.525623,0.658 0.150179,0.23223 0.275327,0.47737 0.375446,0.73541 0.100119,0.25804 0.175208,0.52898 0.225267,0.81282 0.05006,0.28384 0.07509,0.58058 0.07509,0.89023 0,0.31894 -0.02516,0.62432 -0.07548,0.91616 -0.05032,0.29184 -0.125794,0.57014 -0.226429,0.83489 -0.100634,0.26474 -0.226428,0.51594 -0.37738,0.75359 -0.150952,0.23766 -0.327063,0.46176 -0.528333,0.67232 -0.20127,0.21056 -0.413119,0.3948 -0.635547,0.55272 -0.222429,0.15791 -0.455437,0.28951 -0.699025,0.39479 -0.243587,0.10528 -0.497754,0.18424 -0.762501,0.23688 -0.264747,0.0526 -0.540073,0.079 -0.825979,0.079 -0.289003,0 -0.566522,-0.0257 -0.832559,-0.077 -0.266037,-0.0514 -0.520592,-0.12838 -0.763663,-0.23108 -0.243072,-0.1027 -0.474661,-0.23107 -0.694767,-0.38512 -0.220107,-0.15405 -0.42873,-0.33377 -0.625871,-0.53917 -0.196109,-0.2054 -0.367704,-0.42589 -0.514786,-0.66148 -0.147081,-0.23558 -0.269649,-0.48627 -0.367704,-0.75204 -0.09805,-0.26578 -0.171595,-0.54666 -0.220622,-0.84263 -0.04903,-0.29597 -0.07354,-0.60703 -0.07354,-0.93319 0,-0.33338 0.02838,-0.65142 0.08515,-0.9541 0.05677,-0.30267 0.14192,-0.59 0.255457,-0.86197 0.113537,-0.27197 0.255458,-0.52859 0.425763,-0.76986 0.170305,-0.24127 0.368994,-0.46718 0.596067,-0.67774 0.197141,-0.18269 0.403958,-0.34254 0.620452,-0.47956 0.216494,-0.13702 0.442664,-0.2512 0.67851,-0.34254 0.235847,-0.0914 0.48137,-0.15986 0.736569,-0.20553 0.2552,-0.0457 0.520076,-0.0685 0.794628,-0.0685 z m -0.117665,0.45208 c -0.187852,0 -0.366414,0.0174 -0.535687,0.0523 -0.169273,0.0348 -0.329256,0.0871 -0.47995,0.15676 -0.150695,0.0697 -0.292099,0.15676 -0.424215,0.26126 -0.132115,0.10451 -0.254941,0.22643 -0.368478,0.36577 -0.141405,0.1734 -0.265134,0.36693 -0.371187,0.58059 -0.106054,0.21365 -0.194432,0.44743 -0.265134,0.70134 -0.0707,0.25391 -0.123729,0.52795 -0.15908,0.82211 -0.03535,0.29416 -0.05303,0.60845 -0.05303,0.94287 0,0.34267 0.01832,0.66561 0.05496,0.96881 0.03664,0.30319 0.0916,0.58664 0.164886,0.85036 0.07328,0.26372 0.164886,0.50769 0.274811,0.73193 0.109924,0.22423 0.238169,0.42873 0.384734,0.61348 0.112505,0.14037 0.23404,0.2632 0.364607,0.36848 0.130568,0.10528 0.270166,0.19301 0.418796,0.2632 0.14863,0.0702 0.306291,0.12283 0.472983,0.15792 0.166693,0.0351 0.342417,0.0526 0.527172,0.0526 0.197141,0 0.385637,-0.0192 0.56549,-0.0577 0.179852,-0.0384 0.35106,-0.0961 0.513624,-0.17302 0.162564,-0.0769 0.316483,-0.17301 0.461759,-0.28836 0.145275,-0.11534 0.281906,-0.24991 0.409893,-0.4037 0.129019,-0.15379 0.24191,-0.32977 0.338674,-0.52794 0.09677,-0.19818 0.177401,-0.41854 0.241911,-0.66109 0.06451,-0.24256 0.112891,-0.50731 0.145146,-0.79424 0.03226,-0.28694 0.04838,-0.59607 0.04838,-0.92739 0,-0.35919 -0.01768,-0.69554 -0.05303,-1.00906 -0.03535,-0.31352 -0.08838,-0.6042 -0.15908,-0.87204 -0.0707,-0.26784 -0.15908,-0.51285 -0.265134,-0.73502 -0.106053,-0.22217 -0.229782,-0.4215 -0.371187,-0.598 -0.113537,-0.14037 -0.237911,-0.2632 -0.373123,-0.36848 -0.135212,-0.10528 -0.281261,-0.19301 -0.438148,-0.2632 -0.156887,-0.0702 -0.324612,-0.12283 -0.503174,-0.15792 -0.178562,-0.0351 -0.367962,-0.0526 -0.568199,-0.0526 z"
       style="font-style:normal;font-variant:normal;font-weight:400;font-size:12.68307686px;line-height:114.93034363%;font-family:'Times New Roman';text-align:start;letter-spacing:0px;word-spacing:0px;text-anchor:start;fill:#000000;fill-opacity:1;stroke:none;stroke-width:0.39634615"
       id="path570" />
  </g>
</svg>
