<?xml version="1.0" encoding="UTF-8" standalone="no"?>
<svg
   xmlns:dc="http://purl.org/dc/elements/1.1/"
   xmlns:cc="http://creativecommons.org/ns#"
   xmlns:rdf="http://www.w3.org/1999/02/22-rdf-syntax-ns#"
   xmlns:svg="http://www.w3.org/2000/svg"
   xmlns="http://www.w3.org/2000/svg"
   id="svg8"
   version="1.1"
   viewBox="0 0 105 148"
   height="148mm"
   width="105mm">
  <defs
     id="defs2">
    <clipPath
       clipPathUnits="userSpaceOnUse"
       id="clipEmfPath1">
      <path
         d="M 0,-0.79951545 H 623.62205 V 109.53362 H 0 Z"
         id="path10" />
    </clipPath>
    <pattern
       id="EMFhbasepattern"
       patternUnits="userSpaceOnUse"
       width="6"
       height="6"
       x="0"
       y="0" />
    <pattern
       id="EMFhbasepattern-9"
       patternUnits="userSpaceOnUse"
       width="6"
       height="6"
       x="0"
       y="0" />
  </defs>
  <metadata
     id="metadata5">
    <rdf:RDF>
      <cc:Work
         rdf:about="">
        <dc:format>image/svg+xml</dc:format>
        <dc:type
           rdf:resource="http://purl.org/dc/dcmitype/StillImage" />
        <dc:title></dc:title>
      </cc:Work>
    </rdf:RDF>
  </metadata>
  <g
     transform="translate(0,-149)"
     id="layer1">
    <path
       d="m 97.658425,235.14228 v 1.2231 1.2231 c 0,0.26423 0.01445,0.4784 0.04335,0.64251 0.0289,0.16411 0.07225,0.27817 0.130051,0.34216 0.07844,0.0908 0.177014,0.15895 0.295712,0.20437 0.118697,0.0454 0.257522,0.0681 0.416473,0.0681 h 0.161016 0.161015 v 0.11457 0.11456 h -1.79904 -1.79904 v -0.11456 -0.11457 h 0.157919 0.157919 c 0.17753,0 0.329772,-0.0289 0.456727,-0.0867 0.126955,-0.0578 0.228622,-0.14451 0.305001,-0.26011 0.04129,-0.064 0.07225,-0.17185 0.09289,-0.32358 0.02064,-0.15172 0.03096,-0.34731 0.03096,-0.58677 v -2.71249 -2.7125 c 0,-0.26423 -0.01393,-0.47841 -0.0418,-0.64252 -0.02787,-0.16411 -0.06967,-0.27817 -0.125406,-0.34216 -0.08051,-0.0908 -0.180627,-0.15895 -0.300357,-0.20436 -0.119729,-0.0454 -0.25907,-0.0681 -0.418021,-0.0681 h -0.157919 -0.157919 v -0.11457 -0.11457 h 1.538938 1.538938 c 0.187852,0 0.365769,0.005 0.533751,0.0147 0.167983,0.01 0.32603,0.0245 0.474144,0.0441 0.148113,0.0196 0.286292,0.0441 0.414537,0.0735 0.128244,0.0294 0.24655,0.0637 0.35493,0.10296 0.10838,0.0382 0.2125,0.0831 0.31236,0.1347 0.0999,0.0516 0.19546,0.10992 0.28681,0.17495 0.0913,0.065 0.17843,0.13676 0.26126,0.2152 0.0828,0.0785 0.1614,0.1636 0.23572,0.25546 0.0743,0.0919 0.13934,0.18798 0.19508,0.28835 0.0557,0.10038 0.10218,0.20501 0.13934,0.31391 0.0371,0.10889 0.065,0.22204 0.0836,0.33944 0.0186,0.11741 0.0279,0.23908 0.0279,0.365 0,0.17134 -0.0142,0.33467 -0.0426,0.49001 -0.0284,0.15534 -0.071,0.30268 -0.12773,0.44202 -0.0568,0.13934 -0.12772,0.27069 -0.21288,0.39403 -0.0851,0.12334 -0.18449,0.23868 -0.29803,0.34603 -0.1125,0.10734 -0.23675,0.20127 -0.37274,0.28178 -0.13598,0.0805 -0.28371,0.14759 -0.44318,0.20127 -0.15947,0.0537 -0.330674,0.0939 -0.513623,0.12076 -0.182949,0.0268 -0.377639,0.0402 -0.584069,0.0402 -0.05057,0 -0.102183,-9e-4 -0.154823,-0.003 -0.05264,-0.002 -0.106312,-0.005 -0.161016,-0.008 -0.0547,-0.004 -0.11044,-0.008 -0.167208,-0.0136 -0.05677,-0.005 -0.114568,-0.0118 -0.173401,-0.019 -0.05883,-0.007 -0.118697,-0.0154 -0.179594,-0.0244 -0.0609,-0.009 -0.122826,-0.019 -0.185788,-0.0298 -0.125922,-0.0217 -0.255973,-0.047 -0.390153,-0.0758 v 3e-5 z m 0,-0.353 c 0.109408,0.0206 0.212623,0.0387 0.309645,0.0542 0.04851,0.008 0.09547,0.0148 0.140889,0.0213 0.04541,0.006 0.08928,0.0123 0.131599,0.0174 0.04232,0.005 0.08309,0.01 0.12231,0.0136 0.03922,0.004 0.07689,0.007 0.11302,0.01 0.03613,0.003 0.0707,0.005 0.103732,0.006 0.03303,0.001 0.06451,0.002 0.09444,0.002 0.107344,0 0.210946,-0.0103 0.310806,-0.031 0.09986,-0.0206 0.19598,-0.0516 0.288357,-0.0929 0.09238,-0.0413 0.181014,-0.0929 0.265908,-0.15482 0.08489,-0.0619 0.166048,-0.13418 0.243459,-0.21675 0.07844,-0.0836 0.147081,-0.17327 0.205913,-0.26901 0.05884,-0.0957 0.107855,-0.19752 0.147085,-0.30538 0.0392,-0.10786 0.0686,-0.22179 0.0882,-0.34178 0.0196,-0.11998 0.0294,-0.24604 0.0294,-0.37815 0,-0.0908 -0.005,-0.17998 -0.0139,-0.26746 -0.009,-0.0875 -0.0232,-0.17327 -0.0418,-0.25739 -0.0186,-0.0841 -0.0418,-0.16657 -0.0697,-0.24733 -0.0279,-0.0808 -0.0604,-0.15986 -0.0975,-0.23727 -0.03716,-0.0784 -0.07819,-0.15185 -0.123085,-0.22023 -0.0449,-0.0684 -0.09367,-0.13173 -0.146307,-0.19005 -0.05264,-0.0583 -0.109151,-0.1116 -0.169532,-0.15985 -0.06038,-0.0482 -0.124632,-0.0915 -0.192754,-0.12966 -0.06812,-0.0392 -0.138566,-0.0735 -0.211333,-0.10296 -0.07277,-0.0294 -0.147856,-0.0539 -0.225267,-0.0735 -0.07741,-0.0196 -0.157145,-0.0343 -0.239201,-0.0441 -0.08206,-0.01 -0.166434,-0.0147 -0.253135,-0.0147 -0.05264,0 -0.109021,0.002 -0.169144,0.007 -0.06012,0.005 -0.123987,0.0123 -0.191593,0.0221 -0.135212,0.0196 -0.28539,0.049 -0.450534,0.0882 v 1.74638 z"
       style="font-style:normal;font-variant:normal;font-weight:400;font-size:12.68307686px;line-height:114.93034363%;font-family:'Times New Roman';text-align:start;letter-spacing:0px;word-spacing:0px;text-anchor:start;fill:#000000;fill-opacity:1;stroke:none;stroke-width:0.39634615"
       id="path572" />
  </g>
</svg>
