<?xml version="1.0" encoding="UTF-8" standalone="no"?>
<svg
   xmlns:dc="http://purl.org/dc/elements/1.1/"
   xmlns:cc="http://creativecommons.org/ns#"
   xmlns:rdf="http://www.w3.org/1999/02/22-rdf-syntax-ns#"
   xmlns:svg="http://www.w3.org/2000/svg"
   xmlns="http://www.w3.org/2000/svg"
   id="svg8"
   version="1.1"
   viewBox="0 0 105 148"
   height="148mm"
   width="105mm">
  <defs
     id="defs2">
    <clipPath
       clipPathUnits="userSpaceOnUse"
       id="clipEmfPath1">
      <path
         d="M 0,-0.79951545 H 623.62205 V 109.53362 H 0 Z"
         id="path10" />
    </clipPath>
    <pattern
       id="EMFhbasepattern"
       patternUnits="userSpaceOnUse"
       width="6"
       height="6"
       x="0"
       y="0" />
    <pattern
       id="EMFhbasepattern-9"
       patternUnits="userSpaceOnUse"
       width="6"
       height="6"
       x="0"
       y="0" />
  </defs>
  <metadata
     id="metadata5">
    <rdf:RDF>
      <cc:Work
         rdf:about="">
        <dc:format>image/svg+xml</dc:format>
        <dc:type
           rdf:resource="http://purl.org/dc/dcmitype/StillImage" />
        <dc:title></dc:title>
      </cc:Work>
    </rdf:RDF>
  </metadata>
  <g
     transform="translate(0,-149)"
     id="layer1">
    <path
       d="m 9.0718077,255.73838 c 0.210559,0.36332 0.4293752,0.67864 0.6564486,0.94596 0.2270734,0.26733 0.4624037,0.48666 0.7059917,0.658 0.245652,0.17134 0.507818,0.30603 0.786499,0.40409 0.278681,0.0981 0.573876,0.15947 0.885586,0.18424 v 0.0991 0.0991 c -0.284874,-0.0103 -0.579553,-0.0444 -0.884037,-0.1022 -0.304485,-0.0578 -0.618775,-0.13933 -0.942871,-0.2446 -0.3240958,-0.10322 -0.6399343,-0.22708 -0.9475155,-0.37158 -0.3075812,-0.1445 -0.6069051,-0.30964 -0.8979718,-0.49543 -0.2890023,-0.18372 -0.5583938,-0.37364 -0.8081745,-0.56975 -0.1248903,-0.0981 -0.244878,-0.19765 -0.3599629,-0.2988 -0.1150849,-0.10115 -0.2252671,-0.20385 -0.3305466,-0.3081 -0.1486297,-0.0599 -0.2895182,-0.12063 -0.4226657,-0.1823 -0.1331474,-0.0617 -0.2585538,-0.12425 -0.376219,-0.18773 -0.1176653,-0.0635 -0.2275894,-0.12786 -0.3297725,-0.19314 -0.102183,-0.0653 -0.196625,-0.13147 -0.2833258,-0.19856 -0.1259225,-0.10012 -0.244878,-0.20591 -0.3568664,-0.31739 -0.1119884,-0.11147 -0.2170098,-0.22862 -0.3150641,-0.35144 -0.098054,-0.12283 -0.1891416,-0.25133 -0.2732619,-0.38551 -0.08412,-0.13418 -0.1612734,-0.27404 -0.2314596,-0.41957 -0.069154,-0.14657 -0.1296641,-0.29971 -0.1815297,-0.45944 -0.051866,-0.15973 -0.095087,-0.32603 -0.1296641,-0.49892 -0.034577,-0.17288 -0.06051,-0.35235 -0.077798,-0.53839 -0.017288,-0.18605 -0.025933,-0.37867 -0.025933,-0.57788 0,-0.31377 0.025417,-0.61426 0.07625,-0.90145 0.050833,-0.2872 0.1270836,-0.56111 0.2287505,-0.82172 0.101667,-0.26062 0.2287506,-0.50795 0.381251,-0.74199 0.1525004,-0.23404 0.3304175,-0.4548 0.5337513,-0.66226 0.2033338,-0.20746 0.4173762,-0.38899 0.6421272,-0.54459 0.2247509,-0.15559 0.4602105,-0.28526 0.7063786,-0.38899 0.246168,-0.10373 0.5030447,-0.18153 0.7706299,-0.23339 0.2675852,-0.0519 0.545879,-0.0778 0.8348813,-0.0778 0.2745523,0 0.5398153,0.0261 0.7957889,0.0782 0.2559736,0.0521 0.5026578,0.13031 0.7400527,0.23455 0.2373948,0.10425 0.4655007,0.23456 0.6843167,0.39093 0.218816,0.15637 0.428343,0.33881 0.62858,0.5473 0.20127,0.20746 0.37738,0.4286 0.528332,0.66341 0.150953,0.23482 0.276746,0.48331 0.377381,0.74547 0.100634,0.26217 0.176111,0.53801 0.226428,0.82753 0.05032,0.28952 0.07548,0.59271 0.07548,0.90958 0,0.25701 -0.01793,0.50614 -0.0538,0.74741 -0.03587,0.24127 -0.08967,0.47466 -0.161402,0.70019 -0.07174,0.22552 -0.161403,0.44318 -0.269005,0.65296 -0.107602,0.20979 -0.233137,0.41171 -0.376606,0.60575 -0.142437,0.19404 -0.295711,0.37248 -0.459823,0.5353 -0.164112,0.16282 -0.339062,0.31003 -0.524849,0.44163 -0.185788,0.1316 -0.3824125,0.24758 -0.589875,0.34796 -0.2074625,0.10038 -0.4257626,0.18515 -0.6549003,0.2543 z m -1.040409,-8.20561 c -0.1878515,0 -0.3665427,0.0168 -0.5360735,0.0503 -0.1695308,0.0335 -0.3299013,0.0839 -0.4811115,0.15095 -0.1512102,0.0671 -0.29326,0.15095 -0.4261495,0.25159 -0.1328895,0.10063 -0.2566187,0.21804 -0.3711875,0.35222 -0.1445012,0.16824 -0.2709397,0.3588 -0.3793156,0.57169 -0.1083758,0.21288 -0.1986891,0.44808 -0.2709397,0.7056 -0.07225,0.25752 -0.1264385,0.53736 -0.1625638,0.83953 -0.036125,0.30216 -0.054188,0.62664 -0.054188,0.97344 0,0.33958 0.018321,0.65967 0.054962,0.96029 0.036641,0.30061 0.091603,0.58175 0.1648861,0.8434 0.073283,0.26165 0.1648862,0.50382 0.2748104,0.7265 0.1099241,0.22269 0.2381689,0.4259 0.3847344,0.60962 0.1135367,0.14141 0.2362337,0.26513 0.368091,0.37119 0.1318573,0.10605 0.272875,0.19443 0.423053,0.26513 0.150178,0.0707 0.3095163,0.12373 0.478015,0.15908 0.1684987,0.0354 0.3461577,0.053 0.532977,0.053 0.1940445,0 0.3786706,-0.0177 0.5538783,-0.053 0.1752077,-0.0353 0.340997,-0.0884 0.497368,-0.15908 0.1563709,-0.0707 0.3033234,-0.15908 0.4408575,-0.26513 0.1375341,-0.10606 0.2656499,-0.22978 0.3843472,-0.37119 0.1393403,-0.16721 0.2612633,-0.35429 0.3657693,-0.56123 0.104505,-0.20695 0.191593,-0.43376 0.261263,-0.68045 0.06967,-0.24668 0.121923,-0.51323 0.156758,-0.79966 0.03484,-0.28642 0.05225,-0.59271 0.05225,-0.91887 0,-0.25081 -0.0095,-0.49169 -0.02864,-0.72264 -0.0191,-0.23094 -0.04774,-0.45195 -0.08593,-0.66302 -0.03819,-0.21108 -0.08593,-0.41222 -0.143211,-0.60343 -0.05728,-0.1912 -0.124116,-0.37247 -0.200495,-0.54381 -0.05883,-0.13212 -0.122568,-0.25546 -0.191206,-0.37003 -0.06864,-0.11457 -0.1421792,-0.22036 -0.2206227,-0.31739 -0.078444,-0.097 -0.1617898,-0.18527 -0.2500387,-0.26474 -0.088249,-0.0795 -0.1814006,-0.15018 -0.2794549,-0.21211 -0.097022,-0.063 -0.1971411,-0.11805 -0.3003563,-0.16527 -0.1032152,-0.0472 -0.2095269,-0.0866 -0.3189349,-0.11806 -0.1094081,-0.0315 -0.2219127,-0.0551 -0.3375136,-0.0708 -0.115601,-0.0157 -0.2342984,-0.0236 -0.3560922,-0.0236 z"
       style="font-style:normal;font-variant:normal;font-weight:400;font-size:12.68307686px;line-height:114.93034363%;font-family:'Times New Roman';text-align:start;letter-spacing:0px;word-spacing:0px;text-anchor:start;fill:#000000;fill-opacity:1;stroke:none;stroke-width:0.39634615"
       id="path574" />
  </g>
</svg>
