<?xml version="1.0" encoding="UTF-8" standalone="no"?>
<svg
   xmlns:dc="http://purl.org/dc/elements/1.1/"
   xmlns:cc="http://creativecommons.org/ns#"
   xmlns:rdf="http://www.w3.org/1999/02/22-rdf-syntax-ns#"
   xmlns:svg="http://www.w3.org/2000/svg"
   xmlns="http://www.w3.org/2000/svg"
   id="svg8"
   version="1.1"
   viewBox="0 0 105 148"
   height="148mm"
   width="105mm">
  <defs
     id="defs2">
    <clipPath
       clipPathUnits="userSpaceOnUse"
       id="clipEmfPath1">
      <path
         d="M 0,-0.79951545 H 623.62205 V 109.53362 H 0 Z"
         id="path10" />
    </clipPath>
    <pattern
       id="EMFhbasepattern"
       patternUnits="userSpaceOnUse"
       width="6"
       height="6"
       x="0"
       y="0" />
    <pattern
       id="EMFhbasepattern-9"
       patternUnits="userSpaceOnUse"
       width="6"
       height="6"
       x="0"
       y="0" />
  </defs>
  <metadata
     id="metadata5">
    <rdf:RDF>
      <cc:Work
         rdf:about="">
        <dc:format>image/svg+xml</dc:format>
        <dc:type
           rdf:resource="http://purl.org/dc/dcmitype/StillImage" />
        <dc:title></dc:title>
      </cc:Work>
    </rdf:RDF>
  </metadata>
  <g
     transform="translate(0,-149)"
     id="layer1">
    <path
       d="m 42.737441,248.125 v 0.72612 0.72612 0.72611 0.72612 h -0.05728 -0.05729 -0.05729 -0.05728 c -0.01858,-0.13934 -0.0409,-0.27158 -0.06696,-0.39673 -0.02606,-0.12515 -0.05586,-0.2432 -0.08941,-0.35416 -0.03354,-0.11095 -0.07083,-0.21481 -0.111859,-0.31158 -0.04103,-0.0968 -0.0858,-0.18643 -0.134309,-0.269 -0.04748,-0.0826 -0.100119,-0.16089 -0.157919,-0.23494 -0.0578,-0.0741 -0.120762,-0.14386 -0.188884,-0.2094 -0.06812,-0.0655 -0.141405,-0.12683 -0.219848,-0.18385 -0.07844,-0.057 -0.162048,-0.1098 -0.250813,-0.15831 -0.08877,-0.0485 -0.178304,-0.091 -0.268617,-0.12734 -0.09031,-0.0364 -0.181401,-0.0667 -0.273263,-0.091 -0.09186,-0.0243 -0.184497,-0.0425 -0.277906,-0.0546 -0.09341,-0.0121 -0.187594,-0.0182 -0.282552,-0.0182 -0.107344,0 -0.210043,0.008 -0.308097,0.0248 -0.09805,0.0165 -0.191464,0.0413 -0.280229,0.0743 -0.08877,0.033 -0.172885,0.0743 -0.252361,0.12386 -0.07948,0.0495 -0.154307,0.10734 -0.224493,0.1734 -0.07019,0.065 -0.131599,0.13237 -0.184239,0.20204 -0.05264,0.0697 -0.09651,0.14167 -0.1316,0.21598 -0.03509,0.0743 -0.06141,0.15095 -0.07896,0.22991 -0.01755,0.079 -0.02632,0.16025 -0.02632,0.24385 0,0.064 0.0055,0.12657 0.01664,0.18772 0.0111,0.0612 0.02774,0.12089 0.04993,0.17921 0.02219,0.0583 0.04993,0.11521 0.08322,0.17069 0.03329,0.0555 0.07212,0.10954 0.116504,0.16218 0.06399,0.0774 0.150049,0.16127 0.258167,0.25158 0.108118,0.0903 0.238298,0.18708 0.390541,0.2903 0.152242,0.10321 0.326546,0.21288 0.522913,0.32899 0.196367,0.11612 0.414796,0.23869 0.655287,0.36771 0.196109,0.10528 0.376606,0.20449 0.541493,0.29764 0.164886,0.0932 0.314161,0.18024 0.447824,0.26127 0.133664,0.081 0.251717,0.15598 0.354158,0.22487 0.102441,0.0689 0.189271,0.13173 0.260489,0.1885 0.07225,0.0557 0.140243,0.11405 0.203979,0.17495 0.06373,0.0609 0.123213,0.12438 0.178433,0.19044 0.05522,0.0661 0.106182,0.13469 0.152887,0.20591 0.0467,0.0712 0.08915,0.14502 0.127342,0.2214 0.03922,0.0764 0.07354,0.15366 0.102957,0.23185 0.02942,0.0782 0.05393,0.15727 0.07354,0.23726 0.01961,0.08 0.03432,0.16089 0.04413,0.24269 0.0098,0.0818 0.01471,0.1645 0.01471,0.2481 0,0.15895 -0.01548,0.31248 -0.04645,0.46059 -0.03096,0.14812 -0.07741,0.29081 -0.13934,0.42809 -0.06193,0.13727 -0.139341,0.26913 -0.232234,0.39557 -0.09289,0.12644 -0.20127,0.24746 -0.325128,0.36306 -0.122826,0.11457 -0.254554,0.21482 -0.395185,0.30074 -0.140631,0.0859 -0.290164,0.15753 -0.448599,0.21482 -0.158435,0.0573 -0.325773,0.10024 -0.502012,0.12889 -0.17624,0.0286 -0.361383,0.043 -0.555427,0.043 -0.0609,0 -0.120891,-0.001 -0.179981,-0.003 -0.05909,-0.002 -0.117278,-0.006 -0.174563,-0.0104 -0.05728,-0.005 -0.113665,-0.0105 -0.169144,-0.0174 -0.05548,-0.007 -0.110053,-0.0151 -0.163725,-0.0244 -0.032,-0.005 -0.07264,-0.0137 -0.121923,-0.0256 -0.04928,-0.0119 -0.107214,-0.0271 -0.173788,-0.0457 -0.06657,-0.0186 -0.141792,-0.0405 -0.225654,-0.0658 -0.08386,-0.0253 -0.176369,-0.0539 -0.27752,-0.0859 -0.100119,-0.033 -0.191077,-0.0619 -0.272875,-0.0867 -0.0818,-0.0248 -0.154436,-0.0454 -0.217913,-0.0619 -0.06348,-0.0165 -0.117794,-0.0289 -0.162951,-0.0371 -0.04516,-0.008 -0.08115,-0.0124 -0.107989,-0.0124 -0.0258,0 -0.05032,0.002 -0.07354,0.006 -0.02322,0.004 -0.04516,0.01 -0.0658,0.0174 -0.02064,0.008 -0.04,0.0174 -0.05806,0.029 -0.01806,0.0116 -0.03484,0.0252 -0.05032,0.0406 -0.01445,0.0155 -0.028,0.0351 -0.04064,0.0588 -0.01264,0.0237 -0.02438,0.0516 -0.03522,0.0836 -0.01084,0.032 -0.02077,0.0681 -0.0298,0.10838 -0.009,0.0403 -0.01716,0.0846 -0.02439,0.13314 h -0.05729 -0.05728 -0.05729 -0.05728 v -0.71992 -0.71993 -0.71992 -0.71993 h 0.05728 0.05729 0.05728 0.05729 c 0.02684,0.1507 0.05599,0.29197 0.08748,0.42383 0.03148,0.13186 0.06528,0.2543 0.101409,0.36732 0.03612,0.11302 0.07457,0.21662 0.115343,0.3108 0.04077,0.0942 0.08386,0.17895 0.129277,0.2543 0.04542,0.0743 0.09676,0.14553 0.154049,0.21366 0.05728,0.0681 0.120503,0.13314 0.189657,0.19507 0.06915,0.0619 0.144243,0.12076 0.225267,0.1765 0.08102,0.0557 0.167982,0.10838 0.260876,0.15792 0.09393,0.0495 0.190045,0.0929 0.288357,0.13005 0.09831,0.0372 0.198819,0.0681 0.301518,0.0929 0.102699,0.0248 0.207591,0.0434 0.314677,0.0557 0.107086,0.0124 0.216365,0.0186 0.327837,0.0186 0.129019,0 0.2512,-0.009 0.366543,-0.0256 0.115343,-0.017 0.223848,-0.0426 0.325515,-0.0766 0.101667,-0.0341 0.196496,-0.0766 0.284486,-0.12774 0.08799,-0.0511 0.169144,-0.1107 0.243459,-0.17882 0.07535,-0.0681 0.141276,-0.13934 0.197786,-0.21365 0.05651,-0.0743 0.103603,-0.15173 0.141276,-0.23224 0.03767,-0.0805 0.06593,-0.16411 0.08477,-0.25081 0.01884,-0.0867 0.02826,-0.1765 0.02826,-0.26939 0,-0.0516 -0.0036,-0.10334 -0.01084,-0.15521 -0.0072,-0.0519 -0.01806,-0.10386 -0.03251,-0.15598 -0.01445,-0.0521 -0.03251,-0.10438 -0.05419,-0.15676 -0.02168,-0.0524 -0.04696,-0.10489 -0.07586,-0.15753 -0.02787,-0.0526 -0.05974,-0.10438 -0.0956,-0.15521 -0.03587,-0.0508 -0.07573,-0.10077 -0.1196,-0.14979 -0.04387,-0.049 -0.09173,-0.0971 -0.143598,-0.14438 -0.05187,-0.0472 -0.107731,-0.0935 -0.167596,-0.13895 -0.04025,-0.031 -0.09793,-0.0706 -0.173015,-0.11883 -0.07509,-0.0482 -0.167595,-0.10515 -0.27752,-0.17069 -0.109924,-0.0655 -0.237265,-0.13973 -0.382025,-0.22256 -0.144759,-0.0828 -0.306936,-0.1743 -0.48653,-0.27442 -0.179594,-0.10115 -0.346287,-0.19714 -0.500077,-0.28797 -0.153791,-0.0908 -0.29468,-0.1765 -0.422666,-0.257 -0.127987,-0.0805 -0.243072,-0.15586 -0.345255,-0.22604 -0.102183,-0.0702 -0.191464,-0.13522 -0.267843,-0.19508 -0.07535,-0.0599 -0.146178,-0.12128 -0.212494,-0.18424 -0.06632,-0.063 -0.128116,-0.12747 -0.1854,-0.19353 -0.05729,-0.0661 -0.110053,-0.13366 -0.158307,-0.20281 -0.04825,-0.0692 -0.09199,-0.13986 -0.131212,-0.21211 -0.03922,-0.0723 -0.07354,-0.14631 -0.102957,-0.22217 -0.02942,-0.0759 -0.05393,-0.15354 -0.07354,-0.23301 -0.01961,-0.0795 -0.03432,-0.16076 -0.04412,-0.24385 -0.0098,-0.0831 -0.01471,-0.16798 -0.01471,-0.25468 0,-0.1507 0.01445,-0.2961 0.04335,-0.43622 0.0289,-0.14011 0.07225,-0.27494 0.130051,-0.40447 0.0578,-0.12954 0.130051,-0.25378 0.216752,-0.37274 0.0867,-0.11895 0.187851,-0.23262 0.303452,-0.34099 0.115601,-0.10941 0.239072,-0.20514 0.370413,-0.2872 0.131342,-0.0821 0.270553,-0.15043 0.417635,-0.20514 0.147081,-0.0547 0.302033,-0.0957 0.464855,-0.12308 0.162822,-0.0273 0.333514,-0.041 0.512076,-0.041 0.111472,0 0.224622,0.007 0.339449,0.0205 0.114827,0.0137 0.231331,0.0342 0.349512,0.0615 0.118181,0.0274 0.23804,0.0616 0.359576,0.10257 0.121536,0.041 0.244749,0.0889 0.369639,0.1436 0.0578,0.0258 0.111343,0.0484 0.160629,0.0677 0.04928,0.0194 0.09431,0.0355 0.135082,0.0484 0.04077,0.0129 0.07728,0.0226 0.109538,0.029 0.03225,0.006 0.06025,0.01 0.08399,0.01 0.02684,0 0.05238,-0.002 0.07664,-0.006 0.02426,-0.004 0.04722,-0.01 0.0689,-0.0174 0.02168,-0.008 0.04206,-0.0174 0.06115,-0.029 0.0191,-0.0116 0.0369,-0.0252 0.05341,-0.0406 0.01755,-0.0165 0.03419,-0.037 0.04993,-0.0615 0.01574,-0.0245 0.03058,-0.053 0.04451,-0.0855 0.01393,-0.0325 0.02697,-0.069 0.03909,-0.10953 0.01213,-0.0405 0.02335,-0.085 0.03367,-0.13353 l 0.05728,-1e-5 0.05729,-1e-5 0.05729,-1e-5 z m -1.096145,-2.53909 -0.456727,0.53414 -0.456727,0.53414 -0.456727,0.53413 -0.456727,0.53414 h -0.05264 -0.05264 -0.05264 -0.05264 l 0.162564,-0.53414 0.162563,-0.53413 0.162564,-0.53414 0.162564,-0.53414 h 0.346803 0.346803 0.346803 z"
       style="font-style:normal;font-variant:normal;font-weight:400;font-size:12.68307686px;line-height:114.93034363%;font-family:'Times New Roman';text-align:start;letter-spacing:0px;word-spacing:0px;text-anchor:start;fill:#000000;fill-opacity:1;stroke:none;stroke-width:0.39634615"
       id="path578" />
  </g>
</svg>
