<?xml version="1.0" encoding="UTF-8" standalone="no"?>
<svg
   xmlns:dc="http://purl.org/dc/elements/1.1/"
   xmlns:cc="http://creativecommons.org/ns#"
   xmlns:rdf="http://www.w3.org/1999/02/22-rdf-syntax-ns#"
   xmlns:svg="http://www.w3.org/2000/svg"
   xmlns="http://www.w3.org/2000/svg"
   id="svg8"
   version="1.1"
   viewBox="0 0 105 148"
   height="148mm"
   width="105mm">
  <defs
     id="defs2">
    <clipPath
       clipPathUnits="userSpaceOnUse"
       id="clipEmfPath1">
      <path
         d="M 0,-0.79951545 H 623.62205 V 109.53362 H 0 Z"
         id="path10" />
    </clipPath>
    <pattern
       id="EMFhbasepattern"
       patternUnits="userSpaceOnUse"
       width="6"
       height="6"
       x="0"
       y="0" />
    <pattern
       id="EMFhbasepattern-9"
       patternUnits="userSpaceOnUse"
       width="6"
       height="6"
       x="0"
       y="0" />
  </defs>
  <metadata
     id="metadata5">
    <rdf:RDF>
      <cc:Work
         rdf:about="">
        <dc:format>image/svg+xml</dc:format>
        <dc:type
           rdf:resource="http://purl.org/dc/dcmitype/StillImage" />
        <dc:title></dc:title>
      </cc:Work>
    </rdf:RDF>
  </metadata>
  <g
     transform="translate(0,-149)"
     id="layer1">
    <path
       d="m 72.341136,250.17422 h 1.105435 1.105435 v 0.25082 0.25081 h -1.105435 -1.105435 v 1.35625 1.35624 c 0,0.26217 0.01755,0.47737 0.05264,0.64561 0.03509,0.16824 0.08773,0.28952 0.15792,0.36383 0.07019,0.0722 0.162048,0.12644 0.275585,0.16257 0.113537,0.0361 0.248748,0.0542 0.405635,0.0542 h 0.145535 0.145535 v 0.11457 0.11456 h -1.78046 -1.78046 v -0.11456 -0.11457 h 0.14863 0.14863 c 0.1734,0 0.318933,-0.0212 0.436598,-0.0635 0.117665,-0.0423 0.207462,-0.10579 0.269392,-0.19043 0.06193,-0.0846 0.108372,-0.20798 0.139335,-0.37003 0.03096,-0.16205 0.04645,-0.3628 0.04645,-0.60226 v -1.35624 -1.35625 h -1.077565 -1.077565 v -0.25081 -0.25082 h 1.077565 1.077565 v -1.60086 -1.60087 h -0.50472 -0.50472 c -0.200237,0 -0.375702,0.01 -0.526395,0.0294 -0.150693,0.0196 -0.276615,0.049 -0.377765,0.0882 -0.101153,0.0392 -0.194565,0.0975 -0.280235,0.17495 -0.08567,0.0774 -0.163598,0.17392 -0.233785,0.28952 -0.06812,0.1156 -0.122307,0.24513 -0.16256,0.3886 -0.04025,0.14347 -0.06657,0.30087 -0.07896,0.47221 h -0.117665 -0.117665 l 0.04955,-0.98467 0.04955,-0.98467 h 3.427775 3.427775 l 0.04645,0.98467 0.04645,0.98467 h -0.117665 -0.117665 c -0.03716,-0.48098 -0.183722,-0.84171 -0.439695,-1.0822 -0.255973,-0.24049 -0.621355,-0.36074 -1.096145,-0.36074 h -0.591425 -0.591425 l -1e-5,1.60087 z"
       style="font-style:normal;font-variant:normal;font-weight:400;font-size:12.68307686px;line-height:114.93034363%;font-family:'Times New Roman';text-align:start;letter-spacing:0px;word-spacing:0px;text-anchor:start;fill:#000000;fill-opacity:1;stroke:none;stroke-width:0.39634615"
       id="path582" />
  </g>
</svg>
