<?xml version="1.0" encoding="UTF-8" standalone="no"?>
<svg
   xmlns:dc="http://purl.org/dc/elements/1.1/"
   xmlns:cc="http://creativecommons.org/ns#"
   xmlns:rdf="http://www.w3.org/1999/02/22-rdf-syntax-ns#"
   xmlns:svg="http://www.w3.org/2000/svg"
   xmlns="http://www.w3.org/2000/svg"
   id="svg8"
   version="1.1"
   viewBox="0 0 105 148"
   height="148mm"
   width="105mm">
  <defs
     id="defs2">
    <clipPath
       clipPathUnits="userSpaceOnUse"
       id="clipEmfPath1">
      <path
         d="M 0,-0.79951545 H 623.62205 V 109.53362 H 0 Z"
         id="path10" />
    </clipPath>
    <pattern
       id="EMFhbasepattern"
       patternUnits="userSpaceOnUse"
       width="6"
       height="6"
       x="0"
       y="0" />
    <pattern
       id="EMFhbasepattern-9"
       patternUnits="userSpaceOnUse"
       width="6"
       height="6"
       x="0"
       y="0" />
  </defs>
  <metadata
     id="metadata5">
    <rdf:RDF>
      <cc:Work
         rdf:about="">
        <dc:format>image/svg+xml</dc:format>
        <dc:type
           rdf:resource="http://purl.org/dc/dcmitype/StillImage" />
        <dc:title></dc:title>
      </cc:Work>
    </rdf:RDF>
  </metadata>
  <g
     transform="translate(0,-149)"
     id="layer1">
    <path
       d="m 89.408796,248.94997 h -0.117665 -0.117665 c -0.0227,-0.1734 -0.04953,-0.32203 -0.08049,-0.44588 -0.03096,-0.12386 -0.06606,-0.22295 -0.105285,-0.29726 -0.07019,-0.13212 -0.153275,-0.24514 -0.249265,-0.33906 -0.09599,-0.0939 -0.204882,-0.16876 -0.326675,-0.2245 l -0.97848,1.50488 -0.97848,1.50487 v 1.63493 1.63493 c 0,0.2601 0.01393,0.47066 0.0418,0.63168 0.02787,0.16101 0.06967,0.27248 0.125407,0.33441 0.07638,0.0867 0.174946,0.15173 0.295708,0.19508 0.120761,0.0434 0.263715,0.065 0.428862,0.065 h 0.14553 0.14553 v 0.11457 0.11456 h -1.78046 -1.78046 v -0.11456 -0.11457 h 0.14863 0.14863 c 0.17753,0 0.329256,-0.0268 0.455177,-0.0805 0.125922,-0.0537 0.22604,-0.13418 0.300353,-0.24153 0.04542,-0.0661 0.07948,-0.17443 0.102187,-0.32512 0.02271,-0.1507 0.03406,-0.34371 0.03406,-0.57904 v -0.71838 -0.71838 l -1.0497,1.61326 -1.0497,1.61325 h -0.275585 -0.275585 l 1.325285,-2.03746 1.325285,-2.03747 v -2.06533 -2.06534 h -0.504725 -0.504725 c -0.198173,0 -0.36693,0.007 -0.50627,0.0217 -0.13934,0.0145 -0.249263,0.0361 -0.32977,0.065 -0.247717,0.0888 -0.440213,0.24617 -0.57749,0.47221 -0.137277,0.22604 -0.219333,0.52071 -0.24617,0.88403 h -0.117665 -0.117665 l 0.04955,-0.98467 0.04955,-0.98467 h 2.91686 2.91686 l 0.05574,-0.0867 0.05573,-0.0867 h 0.275585 0.275585 l -0.05573,0.0867 -0.05573,0.0867 h 0.23533 0.23533 l 0.04644,0.98467 z m -1.46772,-1.42436 c -0.05367,-0.006 -0.105792,-0.0109 -0.156368,-0.0139 -0.05057,-0.003 -0.0996,-0.005 -0.147082,-0.005 h -0.59142 -0.59142 v 1.14879 1.14878 l 0.743145,-1.13949 z"
       style="font-style:normal;font-variant:normal;font-weight:400;font-size:12.68307686px;line-height:114.93034363%;font-family:'Times New Roman';text-align:start;letter-spacing:0px;word-spacing:0px;text-anchor:start;fill:#000000;fill-opacity:1;stroke:none;stroke-width:0.39634615"
       id="path584" />
  </g>
</svg>
