<?xml version="1.0" encoding="UTF-8" standalone="no"?>
<svg
   xmlns:dc="http://purl.org/dc/elements/1.1/"
   xmlns:cc="http://creativecommons.org/ns#"
   xmlns:rdf="http://www.w3.org/1999/02/22-rdf-syntax-ns#"
   xmlns:svg="http://www.w3.org/2000/svg"
   xmlns="http://www.w3.org/2000/svg"
   id="svg8"
   version="1.1"
   viewBox="0 0 105 148"
   height="148mm"
   width="105mm">
  <defs
     id="defs2">
    <clipPath
       clipPathUnits="userSpaceOnUse"
       id="clipEmfPath1">
      <path
         d="M 0,-0.79951545 H 623.62205 V 109.53362 H 0 Z"
         id="path10" />
    </clipPath>
    <pattern
       id="EMFhbasepattern"
       patternUnits="userSpaceOnUse"
       width="6"
       height="6"
       x="0"
       y="0" />
    <pattern
       id="EMFhbasepattern-9"
       patternUnits="userSpaceOnUse"
       width="6"
       height="6"
       x="0"
       y="0" />
  </defs>
  <metadata
     id="metadata5">
    <rdf:RDF>
      <cc:Work
         rdf:about="">
        <dc:format>image/svg+xml</dc:format>
        <dc:type
           rdf:resource="http://purl.org/dc/dcmitype/StillImage" />
        <dc:title></dc:title>
      </cc:Work>
    </rdf:RDF>
  </metadata>
  <g
     transform="translate(0,-149)"
     id="layer1">
    <path
       d="m 9.0122573,276.64755 v -0.11457 -0.11457 h 1.4862997 1.4863 v 0.11457 0.11457 h -0.15792 -0.15792 c -0.165143,0 -0.311192,0.0346 -0.438147,0.10373 -0.126955,0.0691 -0.234816,0.17288 -0.323583,0.31119 -0.04335,0.064 -0.07586,0.17031 -0.09754,0.31894 -0.02168,0.14863 -0.03251,0.33957 -0.03251,0.57284 v 1.70305 1.70305 c 0,0.21056 -0.0053,0.40938 -0.01587,0.59645 -0.01058,0.18708 -0.02645,0.36242 -0.04761,0.52601 -0.02116,0.1636 -0.04761,0.31545 -0.07935,0.45557 -0.03174,0.14011 -0.06877,0.26849 -0.111086,0.38512 -0.04129,0.1156 -0.09277,0.2272 -0.154437,0.33481 -0.06167,0.1076 -0.133535,0.2112 -0.21559,0.3108 -0.08206,0.0996 -0.1743043,0.19521 -0.2767447,0.28681 -0.1024404,0.0916 -0.215073,0.17921 -0.337898,0.26281 -0.121795,0.0826 -0.2546854,0.15482 -0.3986713,0.21675 -0.1439858,0.0619 -0.299067,0.11354 -0.4652437,0.15483 -0.1661767,0.0413 -0.3434487,0.0722 -0.5318162,0.0929 -0.1883676,0.0206 -0.3878305,0.031 -0.5983888,0.031 -0.2291383,0 -0.4444715,-0.01 -0.6459994,-0.0298 -0.2015279,-0.0199 -0.3892506,-0.0497 -0.5631681,-0.0894 -0.1739175,-0.0397 -0.3340298,-0.0894 -0.4803369,-0.14901 -0.1463071,-0.0596 -0.2788089,-0.12915 -0.3975056,-0.20863 -0.1186967,-0.0795 -0.2287492,-0.16579 -0.3301575,-0.25894 -0.1014083,-0.0931 -0.1941725,-0.19314 -0.2782925,-0.29997 -0.08412,-0.10683 -0.1595958,-0.22049 -0.2264275,-0.34099 -0.066832,-0.12051 -0.1250192,-0.24785 -0.1745625,-0.38203 -0.03303,-0.0919 -0.061931,-0.20385 -0.086704,-0.33597 -0.024773,-0.13211 -0.045416,-0.28435 -0.061931,-0.45672 -0.016515,-0.17237 -0.028901,-0.36487 -0.037159,-0.57749 -0.00826,-0.21262 -0.012386,-0.44537 -0.012386,-0.69825 v -1.64112 -1.64112 c 0,-0.25804 -0.018063,-0.4717 -0.054188,-0.64097 -0.036125,-0.16927 -0.090312,-0.29416 -0.1625625,-0.37467 -0.070187,-0.0805 -0.1625642,-0.14089 -0.2771325,-0.18114 -0.1145683,-0.0402 -0.2513275,-0.0604 -0.4102775,-0.0604 h -0.15792 -0.15792 v -0.11457 -0.11457 h 1.81452 1.81452 v 0.11457 0.11457 h -0.161015 -0.161015 c -0.1734,0 -0.3220292,0.0273 -0.4458875,0.082 -0.1238583,0.0547 -0.2229458,0.13676 -0.2972625,0.24617 -0.051607,0.0743 -0.090312,0.18889 -0.116115,0.34371 -0.025803,0.15482 -0.038705,0.3499 -0.038705,0.58523 v 1.83 1.83001 c 0,0.0815 0.00181,0.16605 0.00542,0.25352 0.00361,0.0875 0.00903,0.17792 0.016256,0.27133 0.00723,0.0934 0.016256,0.18978 0.027094,0.28913 0.010838,0.0993 0.023481,0.20165 0.037931,0.30693 0.015483,0.10528 0.033934,0.20475 0.055352,0.29842 0.021418,0.0937 0.045803,0.18153 0.073156,0.26359 0.027353,0.0821 0.057672,0.15831 0.090959,0.22875 0.033287,0.0704 0.069541,0.13509 0.1087631,0.19392 0.039222,0.0588 0.082701,0.11508 0.1304375,0.16875 0.047737,0.0537 0.099731,0.10477 0.1559825,0.15328 0.056252,0.0485 0.1167608,0.0944 0.1815275,0.13779 0.064767,0.0433 0.1337908,0.0841 0.2070725,0.12231 0.074315,0.0382 0.1527588,0.0716 0.2353313,0.10025 0.082573,0.0286 0.1692737,0.0525 0.2601037,0.0716 0.09083,0.0191 0.1857888,0.0334 0.2848762,0.043 0.099088,0.01 0.2023038,0.0143 0.3096488,0.0143 0.137275,0 0.2709377,-0.007 0.4009881,-0.0224 0.1300504,-0.015 0.2564886,-0.0374 0.3793144,-0.0674 0.1228258,-0.0299 0.2420394,-0.0673 0.3576406,-0.11224 0.1156013,-0.0449 0.2275902,-0.0973 0.3359669,-0.15715 0.108375,-0.0599 0.2081058,-0.12386 0.2991925,-0.19198 0.091087,-0.0681 0.1735292,-0.14037 0.2473275,-0.21675 0.073798,-0.0764 0.1389525,-0.15689 0.1954625,-0.24153 0.05651,-0.0846 0.1043758,-0.1734 0.1435975,-0.26629 0.040255,-0.0939 0.075478,-0.20398 0.1056697,-0.33016 0.03019,-0.12618 0.05535,-0.26849 0.07548,-0.42693 0.02013,-0.15843 0.03522,-0.333 0.04529,-0.52369 0.01006,-0.19069 0.0151,-0.39751 0.0151,-0.62045 v -1.69995 -1.69995 c 0,-0.26217 -0.01445,-0.47531 -0.04335,-0.63942 -0.0289,-0.16411 -0.07225,-0.2792 -0.13005,-0.34526 -0.08051,-0.0908 -0.1806298,-0.15895 -0.3003598,-0.20436 -0.1197299,-0.0454 -0.2590699,-0.0681 -0.4180199,-0.0681 h -0.15792 z"
       style="font-style:normal;font-variant:normal;font-weight:400;font-size:12.68307686px;line-height:114.93034363%;font-family:'Times New Roman';text-align:start;letter-spacing:0px;word-spacing:0px;text-anchor:start;fill:#000000;fill-opacity:1;stroke:none;stroke-width:0.39634615"
       id="path588" />
  </g>
</svg>
