<?xml version="1.0" encoding="UTF-8" standalone="no"?>
<svg
   xmlns:dc="http://purl.org/dc/elements/1.1/"
   xmlns:cc="http://creativecommons.org/ns#"
   xmlns:rdf="http://www.w3.org/1999/02/22-rdf-syntax-ns#"
   xmlns:svg="http://www.w3.org/2000/svg"
   xmlns="http://www.w3.org/2000/svg"
   id="svg8"
   version="1.1"
   viewBox="0 0 105 148"
   height="148mm"
   width="105mm">
  <defs
     id="defs2">
    <clipPath
       clipPathUnits="userSpaceOnUse"
       id="clipEmfPath1">
      <path
         d="M 0,-0.79951545 H 623.62205 V 109.53362 H 0 Z"
         id="path10" />
    </clipPath>
    <pattern
       id="EMFhbasepattern"
       patternUnits="userSpaceOnUse"
       width="6"
       height="6"
       x="0"
       y="0" />
    <pattern
       id="EMFhbasepattern-9"
       patternUnits="userSpaceOnUse"
       width="6"
       height="6"
       x="0"
       y="0" />
  </defs>
  <metadata
     id="metadata5">
    <rdf:RDF>
      <cc:Work
         rdf:about="">
        <dc:format>image/svg+xml</dc:format>
        <dc:type
           rdf:resource="http://purl.org/dc/dcmitype/StillImage" />
        <dc:title></dc:title>
      </cc:Work>
    </rdf:RDF>
  </metadata>
  <g
     transform="translate(0,-149)"
     id="layer1">
    <path
       d="m 25.560344,264.35315 v 0.11457 0.11457 c -0.10941,0 -0.208498,0.01 -0.297262,0.0294 -0.08877,0.0196 -0.167208,0.049 -0.235328,0.0882 -0.06812,0.0392 -0.134698,0.0955 -0.199725,0.16876 -0.06503,0.0733 -0.128505,0.1636 -0.190435,0.27094 -0.04128,0.0722 -0.09444,0.19456 -0.159462,0.36693 -0.06503,0.17237 -0.141921,0.39479 -0.230688,0.66728 l -1.17046,3.38442 -1.17046,3.38443 h -0.123855 -0.123855 l -0.956805,-2.68463 -0.956805,-2.68462 -0.950615,2.68462 -0.950615,2.68463 h -0.11147 -0.11147 l -1.24787,-3.4866 -1.24787,-3.48661 c -0.09289,-0.2601 -0.168757,-0.46705 -0.22759,-0.62084 -0.05883,-0.15379 -0.100637,-0.25443 -0.12541,-0.30191 -0.04129,-0.0784 -0.09031,-0.14656 -0.147082,-0.20436 -0.05677,-0.0578 -0.121278,-0.10528 -0.193528,-0.14244 -0.07019,-0.0392 -0.153275,-0.0686 -0.249265,-0.0882 -0.09599,-0.0196 -0.204882,-0.0294 -0.326675,-0.0294 v -0.11457 -0.11457 h 1.55442 1.55442 v 0.11457 0.11457 h -0.07431 -0.07431 c -0.109407,0 -0.205912,0.0124 -0.289515,0.0372 -0.0836,0.0248 -0.154305,0.0619 -0.212105,0.11147 -0.0578,0.0495 -0.101156,0.10425 -0.130057,0.16411 -0.0289,0.0599 -0.04335,0.12489 -0.04335,0.19508 0,0.0722 0.02271,0.19146 0.06812,0.35764 0.04541,0.16617 0.113537,0.37931 0.204367,0.63941 l 0.826755,2.35641 0.826755,2.3564 0.6967,-2.0034 0.6967,-2.00341 -0.123855,-0.353 -0.123855,-0.353 -0.09909,-0.28177 -0.09909,-0.28178 c -0.04335,-0.10322 -0.08928,-0.20024 -0.13779,-0.29107 -0.04851,-0.0908 -0.0996,-0.17547 -0.15327,-0.25391 -0.02683,-0.0392 -0.05676,-0.0753 -0.08979,-0.10837 -0.03303,-0.033 -0.06916,-0.063 -0.108385,-0.0898 -0.05161,-0.0372 -0.103213,-0.0691 -0.15482,-0.096 -0.05161,-0.0268 -0.103213,-0.0485 -0.15482,-0.065 -0.03922,-0.0124 -0.0898,-0.0216 -0.15173,-0.0278 -0.06193,-0.006 -0.135213,-0.009 -0.21985,-0.009 v -0.11457 -0.11457 h 1.63493 1.63493 v 0.11457 0.11457 h -0.11147 -0.11147 c -0.115603,0 -0.215723,0.0124 -0.30036,0.0372 -0.08464,0.0248 -0.15379,0.0619 -0.20746,0.11147 -0.05367,0.0495 -0.09393,0.10786 -0.120765,0.17495 -0.02684,0.0671 -0.04025,0.14295 -0.04025,0.22759 0,0.10528 0.02322,0.24978 0.06967,0.4335 0.04645,0.18372 0.116117,0.40666 0.20901,0.66883 l 0.80508,2.28209 0.80508,2.28209 0.798885,-2.31305 0.798885,-2.31306 c 0.09083,-0.25597 0.158953,-0.47272 0.204368,-0.65025 0.04541,-0.17753 0.06812,-0.31584 0.06812,-0.41493 0,-0.0475 -0.0077,-0.0934 -0.02323,-0.13779 -0.01548,-0.0444 -0.03871,-0.0872 -0.06968,-0.1285 -0.0289,-0.0413 -0.06193,-0.0764 -0.09908,-0.10528 -0.03716,-0.0289 -0.07844,-0.0516 -0.123855,-0.0681 -0.07844,-0.0289 -0.168757,-0.0506 -0.27094,-0.065 -0.102183,-0.0145 -0.216237,-0.0217 -0.34216,-0.0217 v -0.11457 -0.11457 l 1.254065,-2e-5 z"
       style="font-style:normal;font-variant:normal;font-weight:400;font-size:12.68307686px;line-height:114.93034363%;font-family:'Times New Roman';text-align:start;letter-spacing:0px;word-spacing:0px;text-anchor:start;fill:#000000;fill-opacity:1;stroke:none;stroke-width:0.39634615"
       id="path590" />
  </g>
</svg>
