<?xml version="1.0" encoding="UTF-8" standalone="no"?>
<svg
   xmlns:dc="http://purl.org/dc/elements/1.1/"
   xmlns:cc="http://creativecommons.org/ns#"
   xmlns:rdf="http://www.w3.org/1999/02/22-rdf-syntax-ns#"
   xmlns:svg="http://www.w3.org/2000/svg"
   xmlns="http://www.w3.org/2000/svg"
   id="svg8"
   version="1.1"
   viewBox="0 0 105 148"
   height="148mm"
   width="105mm">
  <defs
     id="defs2">
    <clipPath
       clipPathUnits="userSpaceOnUse"
       id="clipEmfPath1">
      <path
         d="M 0,-0.79951545 H 623.62205 V 109.53362 H 0 Z"
         id="path10" />
    </clipPath>
    <pattern
       id="EMFhbasepattern"
       patternUnits="userSpaceOnUse"
       width="6"
       height="6"
       x="0"
       y="0" />
    <pattern
       id="EMFhbasepattern-9"
       patternUnits="userSpaceOnUse"
       width="6"
       height="6"
       x="0"
       y="0" />
  </defs>
  <metadata
     id="metadata5">
    <rdf:RDF>
      <cc:Work
         rdf:about="">
        <dc:format>image/svg+xml</dc:format>
        <dc:type
           rdf:resource="http://purl.org/dc/dcmitype/StillImage" />
        <dc:title></dc:title>
      </cc:Work>
    </rdf:RDF>
  </metadata>
  <g
     transform="translate(0,-149)"
     id="layer1">
    <g
       transform="translate(-161.82499,90.382957)"
       id="g636">
      <path
         id="path592"
         style="font-style:normal;font-variant:normal;font-weight:400;font-size:12.68307686px;line-height:114.93034363%;font-family:'Times New Roman';text-align:start;letter-spacing:0px;word-spacing:0px;text-anchor:start;fill:#000000;fill-opacity:1;stroke:none;stroke-width:0.39634615"
         d="m 204.76284,172.94697 v 0.11457 0.11457 c -0.10941,0 -0.20849,0.01 -0.29726,0.0294 -0.0888,0.0196 -0.16721,0.049 -0.23533,0.0882 -0.0681,0.0392 -0.13469,0.0955 -0.19972,0.16876 -0.065,0.0733 -0.1285,0.1636 -0.19043,0.27094 -0.0413,0.0722 -0.0944,0.19456 -0.15947,0.36693 -0.065,0.17237 -0.14192,0.39479 -0.23068,0.66728 l -1.17046,3.38442 -1.17046,3.38443 h -0.12386 -0.12386 l -0.95681,-2.68463 -0.9568,-2.68462 -0.95061,2.68462 -0.95061,2.68463 h -0.11148 -0.11147 l -1.24787,-3.48661 -1.24787,-3.4866 c -0.0929,-0.2601 -0.16876,-0.46705 -0.22759,-0.62084 -0.0588,-0.15379 -0.10063,-0.25443 -0.1254,-0.30191 -0.0413,-0.0784 -0.0903,-0.14657 -0.14708,-0.20437 -0.0568,-0.0578 -0.12128,-0.10527 -0.19353,-0.14243 -0.0702,-0.0392 -0.15328,-0.0686 -0.24927,-0.0882 -0.096,-0.0196 -0.20488,-0.0294 -0.32668,-0.0294 v -0.11457 -0.11457 h 1.55442 1.55443 v 0.11457 0.11457 h -0.0743 -0.0743 c -0.10941,0 -0.20592,0.0124 -0.28952,0.0372 -0.0836,0.0248 -0.15431,0.0619 -0.21211,0.11147 -0.0578,0.0495 -0.10115,0.10425 -0.13005,0.16411 -0.0289,0.0599 -0.0433,0.12489 -0.0433,0.19508 0,0.0722 0.0227,0.19146 0.0681,0.35764 0.0454,0.16617 0.11354,0.37931 0.20437,0.63941 l 0.82675,2.3564 0.82675,2.35641 0.6967,-2.00341 0.69671,-2.0034 -0.12386,-0.353 -0.12386,-0.353 -0.0991,-0.28178 -0.0991,-0.28177 c -0.0434,-0.10322 -0.0893,-0.20024 -0.13779,-0.29107 -0.0485,-0.0908 -0.0996,-0.17547 -0.15328,-0.25391 -0.0268,-0.0392 -0.0568,-0.0753 -0.0898,-0.10837 -0.033,-0.033 -0.0692,-0.063 -0.10838,-0.0898 -0.0516,-0.0372 -0.10321,-0.0692 -0.15482,-0.096 -0.0516,-0.0268 -0.10322,-0.0485 -0.15483,-0.065 -0.0392,-0.0124 -0.0898,-0.0216 -0.15172,-0.0278 -0.0619,-0.006 -0.13521,-0.009 -0.21985,-0.009 v -0.11457 -0.11457 h 1.63492 1.63493 v 0.11457 0.11457 h -0.11147 -0.11147 c -0.1156,0 -0.21572,0.0124 -0.30036,0.0372 -0.0846,0.0248 -0.15379,0.0619 -0.20746,0.11147 -0.0537,0.0495 -0.0939,0.10786 -0.12076,0.17495 -0.0268,0.0671 -0.0402,0.14295 -0.0402,0.22759 0,0.10528 0.0232,0.24978 0.0697,0.4335 0.0465,0.18372 0.11612,0.40666 0.20901,0.66883 l 0.80507,2.28209 0.80508,2.28209 0.79888,-2.31306 0.79889,-2.31305 c 0.0908,-0.25597 0.15895,-0.47273 0.20437,-0.65026 0.0454,-0.17753 0.0681,-0.31583 0.0681,-0.41492 0,-0.0475 -0.008,-0.0934 -0.0232,-0.13779 -0.0155,-0.0444 -0.0387,-0.0872 -0.0697,-0.1285 -0.0289,-0.0413 -0.0619,-0.0764 -0.0991,-0.10528 -0.0372,-0.0289 -0.0784,-0.0516 -0.12386,-0.0681 -0.0784,-0.0289 -0.16876,-0.0506 -0.27094,-0.065 -0.10218,-0.0145 -0.21624,-0.0217 -0.34216,-0.0217 v -0.11457 -0.11457 l 1.25407,-3e-5 z" />
      <path
         id="path594"
         style="font-style:normal;font-variant:normal;font-weight:400;font-size:12.68307686px;line-height:114.93034363%;font-family:'Times New Roman';text-align:start;letter-spacing:0px;word-spacing:0px;text-anchor:start;fill:#000000;fill-opacity:1;stroke:none;stroke-width:0.39634615"
         d="m 200.92323,183.15908 h -3.95107 v -0.7927 h 3.95107 z" />
    </g>
  </g>
</svg>
