<?xml version="1.0" encoding="UTF-8" standalone="no"?>
<svg
   xmlns:dc="http://purl.org/dc/elements/1.1/"
   xmlns:cc="http://creativecommons.org/ns#"
   xmlns:rdf="http://www.w3.org/1999/02/22-rdf-syntax-ns#"
   xmlns:svg="http://www.w3.org/2000/svg"
   xmlns="http://www.w3.org/2000/svg"
   id="svg8"
   version="1.1"
   viewBox="0 0 105 148"
   height="148mm"
   width="105mm">
  <defs
     id="defs2">
    <clipPath
       clipPathUnits="userSpaceOnUse"
       id="clipEmfPath1">
      <path
         d="M 0,-0.79951545 H 623.62205 V 109.53362 H 0 Z"
         id="path10" />
    </clipPath>
    <pattern
       id="EMFhbasepattern"
       patternUnits="userSpaceOnUse"
       width="6"
       height="6"
       x="0"
       y="0" />
    <pattern
       id="EMFhbasepattern-9"
       patternUnits="userSpaceOnUse"
       width="6"
       height="6"
       x="0"
       y="0" />
  </defs>
  <metadata
     id="metadata5">
    <rdf:RDF>
      <cc:Work
         rdf:about="">
        <dc:format>image/svg+xml</dc:format>
        <dc:type
           rdf:resource="http://purl.org/dc/dcmitype/StillImage" />
        <dc:title></dc:title>
      </cc:Work>
    </rdf:RDF>
  </metadata>
  <g
     transform="translate(0,-149)"
     id="layer1">
    <g
       transform="translate(93.626181,74.272788)"
       id="g632">
      <path
         id="path598"
         style="font-style:normal;font-variant:normal;font-weight:400;font-size:12.68307686px;line-height:114.93034363%;font-family:'Times New Roman';text-align:start;letter-spacing:0px;word-spacing:0px;text-anchor:start;fill:#000000;fill-opacity:1;stroke:none;stroke-width:0.39634615"
         d="m -21.448501,191.27038 0.901069,1.34386 0.901068,1.34386 c 0.249781,0.37158 0.467048,0.67503 0.651804,0.91036 0.184755,0.23533 0.336997,0.40254 0.456726,0.50163 0.121794,0.097 0.259586,0.17237 0.413377,0.22604 0.153791,0.0537 0.32358,0.0857 0.509367,0.096 v 0.11457 0.11457 h -1.802136 -1.802137 v -0.11457 -0.11457 c 0.11973,-0.002 0.223977,-0.009 0.312742,-0.0216 0.08877,-0.0124 0.162048,-0.03 0.219848,-0.0527 0.04335,-0.0186 0.08257,-0.0418 0.117665,-0.0696 0.03509,-0.0279 0.06606,-0.0604 0.09289,-0.0976 0.0289,-0.0392 0.05057,-0.0784 0.06502,-0.11767 0.01445,-0.0392 0.02168,-0.0784 0.02168,-0.11766 0,-0.0475 -0.0046,-0.095 -0.01394,-0.14244 -0.0093,-0.0475 -0.02323,-0.095 -0.04181,-0.14244 -0.01445,-0.0351 -0.05006,-0.0981 -0.106827,-0.18888 -0.05677,-0.0908 -0.134696,-0.20953 -0.233783,-0.35609 l -0.712185,-1.07757 -0.712184,-1.07757 -0.879393,1.12711 -0.879393,1.12711 c -0.09289,0.11973 -0.167209,0.21985 -0.222945,0.30036 -0.05574,0.0805 -0.09289,0.1414 -0.111472,0.18269 -0.01858,0.0392 -0.03252,0.0795 -0.04181,0.12076 -0.0093,0.0413 -0.01394,0.0836 -0.01394,0.12696 0,0.0661 0.01393,0.12644 0.0418,0.18114 0.02787,0.0547 0.06967,0.10373 0.125407,0.14708 0.05574,0.0434 0.13676,0.0774 0.243071,0.10218 0.106312,0.0248 0.237911,0.0403 0.394798,0.0464 v 0.11457 0.11457 h -1.489395 -1.489394 v -0.11457 -0.11457 c 0.10528,-0.0103 0.203334,-0.0263 0.294164,-0.048 0.09083,-0.0217 0.174433,-0.049 0.250812,-0.082 0.127987,-0.0537 0.252878,-0.11664 0.374671,-0.18889 0.121795,-0.0722 0.240492,-0.15379 0.356093,-0.24462 0.115601,-0.0908 0.239459,-0.20591 0.371574,-0.34525 0.132115,-0.13934 0.272488,-0.30294 0.421118,-0.49079 l 0.990865,-1.25097 0.990866,-1.25096 -0.826754,-1.21072 -0.826753,-1.21071 c -0.225009,-0.32822 -0.432988,-0.59968 -0.623935,-0.81437 -0.190949,-0.21469 -0.364866,-0.37261 -0.521753,-0.47376 -0.156887,-0.10321 -0.325644,-0.18217 -0.50627,-0.23688 -0.180627,-0.0547 -0.373123,-0.0851 -0.577489,-0.0913 v -0.11457 -0.11457 h 1.941477 1.941477 v 0.11457 0.11457 c -0.165144,0.006 -0.304485,0.0227 -0.418021,0.0496 -0.113537,0.0268 -0.20127,0.064 -0.263199,0.11146 -0.05986,0.0475 -0.104764,0.0975 -0.134696,0.15017 -0.02993,0.0526 -0.0449,0.10786 -0.0449,0.16566 0,0.0764 0.02477,0.17031 0.07431,0.28178 0.04954,0.11147 0.123858,0.24049 0.222945,0.38706 l 0.644063,0.963 0.644062,0.96299 0.746246,-0.94441 0.746245,-0.94442 c 0.0867,-0.11147 0.156371,-0.2054 0.209011,-0.28178 0.05264,-0.0764 0.08825,-0.13521 0.106827,-0.1765 0.02064,-0.0413 0.03613,-0.0831 0.04645,-0.12541 0.01032,-0.0423 0.01548,-0.0851 0.01548,-0.1285 0,-0.0434 -0.0062,-0.0841 -0.01858,-0.12231 -0.01239,-0.0382 -0.03096,-0.0738 -0.05573,-0.10683 -0.03096,-0.0434 -0.06606,-0.08 -0.105277,-0.10992 -0.03922,-0.0299 -0.08257,-0.0532 -0.130053,-0.0697 -0.04748,-0.0186 -0.120246,-0.033 -0.2183,-0.0433 -0.09805,-0.0103 -0.221396,-0.0165 -0.370026,-0.0186 v -0.11457 -0.11457 h 1.489394 1.489395 v 0.11457 0.11457 c -0.117665,0.006 -0.224493,0.0186 -0.320483,0.0372 -0.09599,0.0186 -0.181143,0.0433 -0.255458,0.0743 -0.111472,0.0475 -0.2183,0.10322 -0.320483,0.16721 -0.102183,0.064 -0.199721,0.13624 -0.292615,0.21675 -0.09289,0.0805 -0.204882,0.19508 -0.335965,0.34371 -0.131083,0.14863 -0.281261,0.33132 -0.450534,0.54807 l -0.832945,1.06516 z" />
      <path
         id="path600"
         style="font-style:normal;font-variant:normal;font-weight:400;font-size:12.68307686px;line-height:114.93034363%;font-family:'Times New Roman';text-align:start;letter-spacing:0px;word-spacing:0px;text-anchor:start;fill:#000000;fill-opacity:1;stroke:none;stroke-width:0.39634615"
         d="m -20.017939,197.73578 h -3.951076 v -0.79269 h 3.951076 z" />
    </g>
  </g>
</svg>
