<?xml version="1.0" encoding="UTF-8" standalone="no"?>
<svg
   xmlns:dc="http://purl.org/dc/elements/1.1/"
   xmlns:cc="http://creativecommons.org/ns#"
   xmlns:rdf="http://www.w3.org/1999/02/22-rdf-syntax-ns#"
   xmlns:svg="http://www.w3.org/2000/svg"
   xmlns="http://www.w3.org/2000/svg"
   id="svg8"
   version="1.1"
   viewBox="0 0 105 148"
   height="148mm"
   width="105mm">
  <defs
     id="defs2">
    <clipPath
       clipPathUnits="userSpaceOnUse"
       id="clipEmfPath1">
      <path
         d="M 0,-0.79951545 H 623.62205 V 109.53362 H 0 Z"
         id="path10" />
    </clipPath>
    <pattern
       id="EMFhbasepattern"
       patternUnits="userSpaceOnUse"
       width="6"
       height="6"
       x="0"
       y="0" />
    <pattern
       id="EMFhbasepattern-9"
       patternUnits="userSpaceOnUse"
       width="6"
       height="6"
       x="0"
       y="0" />
  </defs>
  <metadata
     id="metadata5">
    <rdf:RDF>
      <cc:Work
         rdf:about="">
        <dc:format>image/svg+xml</dc:format>
        <dc:type
           rdf:resource="http://purl.org/dc/dcmitype/StillImage" />
        <dc:title></dc:title>
      </cc:Work>
    </rdf:RDF>
  </metadata>
  <g
     transform="translate(0,-149)"
     id="layer1">
    <path
       d="m 87.20182,263.80772 h 1.464622 1.464623 v 0.11457 0.11457 h -0.08051 -0.08051 c -0.05367,0 -0.11973,0.0119 -0.198173,0.0356 -0.07844,0.0237 -0.169273,0.0593 -0.272488,0.10683 -0.103215,0.0475 -0.201786,0.10528 -0.295712,0.1734 -0.09393,0.0681 -0.183207,0.14656 -0.267843,0.23533 -0.08464,0.0888 -0.179078,0.2054 -0.283326,0.3499 -0.104247,0.1445 -0.2183,0.31687 -0.342158,0.51711 l -1.01254,1.59467 -1.012541,1.59467 v 1.0528 1.05279 c 0,0.25804 0.01445,0.46757 0.04335,0.62858 0.0289,0.16102 0.07225,0.27353 0.130051,0.33752 0.07844,0.0867 0.179595,0.15172 0.303453,0.19508 0.123858,0.0433 0.270424,0.065 0.439697,0.065 h 0.136244 0.136243 v 0.11457 0.11457 h -1.783558 -1.783557 v -0.11457 -0.11457 h 0.14863 0.14863 c 0.17753,0 0.329256,-0.0268 0.455179,-0.0805 0.125922,-0.0537 0.226041,-0.13418 0.300356,-0.24152 0.04542,-0.0661 0.07948,-0.17443 0.102183,-0.32513 0.02271,-0.15069 0.03406,-0.34371 0.03406,-0.57904 v -0.99396 -0.99396 l -1.151881,-1.75878 -1.151881,-1.75879 c -0.136244,-0.20643 -0.250813,-0.37415 -0.343707,-0.50317 -0.09289,-0.12902 -0.164112,-0.21934 -0.213655,-0.27095 -0.04748,-0.0516 -0.121278,-0.10837 -0.221397,-0.1703 -0.100118,-0.0619 -0.226557,-0.12902 -0.379315,-0.20127 -0.04129,-0.0206 -0.09186,-0.0361 -0.151727,-0.0464 -0.05987,-0.0103 -0.129019,-0.0155 -0.207462,-0.0155 v -0.11457 -0.11457 h 1.795943 1.795944 v 0.11457 0.11457 h -0.09289 -0.09289 c -0.09702,0 -0.190432,0.0113 -0.280229,0.0341 -0.0898,0.0227 -0.175982,0.0568 -0.258554,0.10218 -0.08051,0.0454 -0.140889,0.10219 -0.181143,0.17031 -0.04025,0.0681 -0.06038,0.1476 -0.06038,0.23843 0,0.0743 0.03148,0.17856 0.09444,0.31274 0.06296,0.13418 0.157403,0.29829 0.283326,0.49233 l 0.876296,1.35316 0.876297,1.35315 0.823656,-1.29432 0.823657,-1.29432 c 0.123858,-0.19404 0.216752,-0.36332 0.278681,-0.50782 0.06193,-0.1445 0.09289,-0.26423 0.09289,-0.35919 0,-0.0578 -0.0077,-0.1125 -0.02322,-0.16411 -0.01548,-0.0516 -0.0387,-0.10012 -0.06967,-0.14553 -0.0289,-0.0454 -0.06451,-0.0857 -0.106827,-0.12076 -0.04232,-0.0351 -0.09135,-0.065 -0.147082,-0.0898 -0.05574,-0.0268 -0.125406,-0.047 -0.20901,-0.0604 -0.0836,-0.0134 -0.181143,-0.0201 -0.292615,-0.0201 l -2e-6,-0.11459 z"
       style="font-style:normal;font-variant:normal;font-weight:400;font-size:12.68307686px;line-height:114.93034363%;font-family:'Times New Roman';text-align:start;letter-spacing:0px;word-spacing:0px;text-anchor:start;fill:#000000;fill-opacity:1;stroke:none;stroke-width:0.39634615"
       id="path602" />
  </g>
</svg>
